<svg xmlns="http://www.w3.org/2000/svg" xmlns:xlink="http://www.w3.org/1999/xlink" width="6432" height="6324" viewBox="0 0 6432 6324">
  <defs>
    <clipPath id="clip-Artboard_1">
      <rect width="6432" height="6324"/>
    </clipPath>
  </defs>
  <g id="Artboard_1" data-name="Artboard – 1" clip-path="url(#clip-Artboard_1)">
    <rect width="6432" height="6324" fill="#fff"/>
    <g id="ebay-ar21" transform="translate(252.499 1969.03)">
      <path id="Path_132" data-name="Path 132" d="M804.1,751.365c-267.086,8.729-434,56.6-434,233.718,0,114.747,91.516,238.083,322.278,238.083,309.184,0,474.688-168.39,474.688-445.613V747.071l-362.9,4.365Zm659.057,365.783,10.137,246.742H1198.956c-7.251-62.442-10.137-124.814-10.137-185.848-148.045,182.891-325.234,235.126-570.5,235.126-362.9,0-557.4-191.621-557.4-413.723,0-322.278,264.2-435.476,725.09-445.613,125.518-2.816,266.312-2.816,382.468-2.816v-31.96c0-214.852-137.978-302.707-377.328-302.707-177.119,0-309.184,74.058-322.278,200.35H158.277C191.645,100.263,524.06,20.362,815.785,20.362c351.986,0,645.964,124.814,645.964,495.032v602.388Z" transform="translate(2943.546 512.983)" fill="#f5af02"/>
      <path id="Path_133" data-name="Path 133" d="M1194.273,596.6c-11.616-275.816-211.191-378.877-423.791-378.877-229.354,0-413.723,116.155-445.613,378.877ZM319.026,792.59c15.98,268.565,200.35,426.747,454.343,426.747,175.641,0,332.415-70.4,384.649-227.875h304.819c-59.486,316.435-396.336,423.79-685.175,423.79-526.922,0-759.162-290.318-759.162-680.74,0-431.112,240.969-714.178,765-714.178,416.61,0,721.429,217.738,721.429,693.9V792.66Z" transform="translate(0 511.04)" fill="#e53238"/>
      <path id="Path_134" data-name="Path 134" d="M807.482,1724.534c274.337,0,461.594-197.393,461.594-495.032S1081.819,734.47,807.482,734.47c-272.929,0-461.593,197.393-461.593,495.032S534.553,1724.534,807.482,1724.534ZM51.066,12.97H345.677V754.744c145.159-172.754,344.03-222.1,539.945-222.1,329.458,0,693.9,222.1,693.9,701.155,0,401.264-290.318,693.9-699.747,693.9-214.852,0-415.131-76.944-539.945-229.354,0,60.964-2.816,121.928-10.137,180.005H39.45l10.137-304.819V12.97Z" transform="translate(1453.8)" fill="#0064d2"/>
      <path id="Path_135" data-name="Path 135" d="M1746.333,21.034,833.213,1813.766H502.347l262.722-497.918L78.486,21.034H423.995l505.17,1011.747L1432.855,21.034Z" transform="translate(4162.784 559.618)" fill="#86b817"/>
    </g>
  </g>
</svg>
