<svg xmlns="http://www.w3.org/2000/svg" xmlns:xlink="http://www.w3.org/1999/xlink" width="5836.259" height="1538.437" viewBox="0 0 5836.259 1538.437">
  <defs>
    <linearGradient id="linear-gradient" x1="0.5" y1="0.635" x2="0.5" y2="-0.365" gradientUnits="objectBoundingBox">
      <stop offset="0" stop-color="#f7e830"/>
      <stop offset="1" stop-color="#fdcb06"/>
    </linearGradient>
    <radialGradient id="radial-gradient" cx="0.496" cy="3.536" r="4.378" gradientTransform="matrix(0.154, 0, 0, -1, 0.419, 4.088)" gradientUnits="objectBoundingBox">
      <stop offset="0.596" stop-color="#f29405"/>
      <stop offset="0.736" stop-color="#f7d01e"/>
      <stop offset="1" stop-color="#fdcb06"/>
    </radialGradient>
    <linearGradient id="linear-gradient-2" x1="0.491" y1="11.655" x2="0.499" y2="10.674" gradientUnits="objectBoundingBox">
      <stop offset="0" stop-color="#fada1c"/>
      <stop offset="1" stop-color="#fdcb06"/>
    </linearGradient>
    <linearGradient id="linear-gradient-3" x1="101.001" y1="11.748" x2="101.009" y2="10.768" xlink:href="#linear-gradient-2"/>
    <clipPath id="clip-path">
      <path id="Path_152" data-name="Path 152" d="M949.14,217.772c-1.74-3.263-1.955-7.178-1.955-10.875l-1.742.217c-2.608-9.57-10.653-18.705-21.1-19.14-7.832-.653-17.62-.435-22.183,6.96-8.7,11.745-4.572,26.753-5,40.02,0,.87.22,2.393.22,3.263a152.02,152.02,0,0,1-2.61,26.318,18.7,18.7,0,0,0-1.955,8.483,200.583,200.583,0,0,1-21.1,59.161,21.953,21.953,0,0,0-4.133,8.483c-6.525,11.31-14.355,21.75-22.4,32.19a27.891,27.891,0,0,0-3.482,3.7c-5.657,6.96-11.743,12.833-18.055,18.923-1.52.87-2.608,1.957-3.915,2.828a141.651,141.651,0,0,1-24.578,19.358c-1.087.652-2.175,1.523-3.482,2.393-55.683,36.758-123.322,51.983-189.227,52.636A353.454,353.454,0,0,1,439.749,438.32c-.866-.435-3.041-1.305-3.915-1.74-8.48-4.568-17.181-8.483-25.013-14.138-1.74-.87-3.48-1.957-5.438-2.827a166.253,166.253,0,0,1-22.838-16.1c-2.393-2.175-5-3.915-7.613-5.873-7.83-6.308-15.878-13.05-22.616-20.663-1.74-1.958-3.484-3.7-5.22-5.438-23.7-24.578-42.191-54.593-51.979-87.219-9.357-25.883-8.048-54.158-9.135-81.346-7.834-11.963-24.36-18.705-37.41-11.31-5.438,3.915-6.09,11.093-10.223,16.1-6.743,71.776,23.925,143.334,72.863,195.1a3.527,3.527,0,0,0,2.4,3.48c8.7,8.048,17.178,16.313,25.878,24.143a34.609,34.609,0,0,0,5.22,4.35c8.7,7.178,18.053,13.7,27.188,20.445a46.278,46.278,0,0,0,5.438,3.48c11.963,6.96,23.268,15.225,36.105,20.01a28.327,28.327,0,0,0,3.263,2.175c41.325,19.793,85.913,33.278,131.589,37.628A70.3,70.3,0,0,1,563.3,520.1c21.75,1.3,43.5.653,65.251.218,67.2-5.873,136.592-22.185,192.707-61.771l.653.87c1.74-1.523,3.263-2.828,5-4.133,8.922-6.525,17.622-13.485,26.322-20.663a66.067,66.067,0,0,0,6.09-5.22c9.568-10.44,20.663-20.01,28.71-31.973l1.3.652c.653-1.087,1.74-3.263,2.4-4.35,7.391-10.005,14.138-20.445,20.663-30.885.431-.652,1.518-1.74,1.953-2.393l-.866-.87c.652-.87,2.175-2.61,2.828-3.48,11.963-24.36,22.616-49.808,26.318-76.778a3.73,3.73,0,0,0,2.395-3.48c.22-8.7,3.263-16.965,2.395-25.665,1.934-10.658,2.153-21.533,1.718-32.408Z" transform="translate(-237.424 -187.737)"/>
    </clipPath>
  </defs>
  <g id="flipkart-logo-svg-vector" transform="translate(1925.617 -47.039)">
    <path id="Path_138" data-name="Path 138" d="M1594.743,173.125c-.652-2.175-1.309-4.35-2.175-6.525q-772.895.326-1545.355.217a8.988,8.988,0,0,0-2.393,5q0,599.328-.222,1198.439c3.263,21.313,15.008,40.671,30.672,55.246.653.217,2.175.429,2.828.651,8.048,8.478,19.575,12.617,30.45,16.53,8.048-.433,15.878,3.045,23.925,2.175H771.931c6.09-.217,12.393.87,18.266-1.521.222-.865.435-2.392.652-3.262.222-1.087.435-3.48.655-4.783,13.7-76.559,26.968-153.339,41.545-229.9l1.305-9.788c-59.159-.222-118.539,0-177.7-.222-14.357-.433-29.143,0-43.5-1.742-24.576-1.088-49.371-.217-73.949-2.608-30.45,0-60.683-2.83-91.134-2.83-23.925-2.393-48.068-1.52-72.211-2.608-15.656-1.953-31.755-1.087-47.629-1.742-25.883-2.826-52.2-.866-78.083-3.7-27.405.222-54.811-2.175-82.216-2.83a3.091,3.091,0,0,0,.435-1.3c9.135.217,18.053-.433,27.188-.651,20.228-2.612,40.673-.87,60.9-3.7,21.1,0,41.978-2.826,63.076-2.826,18.705-2.612,37.628-1.087,56.329-3.7,21.972,0,43.5-2.825,65.473-3.045,18.053-2.392,36.323-1.087,54.376-3.48,21.1.217,41.978-3.045,63.076-2.825,20.663-2.4,41.756-1.747,62.419-3.922-1.953-8.041-3.48-16.091-5.216-24.143-1.523-5-7.613-3.913-11.528-4.567q-70.8-10.12-141.159-20.008c3.045-2.4,7.178-1.309,10.658-1.742,36.54-2.83,72.863-6.092,109.4-8.7,8.265-.433,16.313-1.958,24.578-2.175-3.7-11.308-5.873-23.708-10.875-34.146-78.079-11.963-156.167-22.62-234.033-35.455,20.228-3.263,40.673-4.783,60.9-6.958l1.74-.655c64.6-6.747,129.414-14.359,194.012-20.663,81.994-.433,163.779-.222,245.778,0,2.606-.433,7.178.866,7.613-2.83,6.743-35.233,13.268-70.466,20.006-105.706,9.353-48.934,24.143-97.221,46.981-141.809a418.215,418.215,0,0,1,161.818-173.13c64.6-37.845,139.423-56.116,213.809-59.6a335.882,335.882,0,0,1,72.428,1.523c15.66,3.7,31.755,8.048,44.153,18.705,10.223,8.265,16.313,20.445,20.88,32.625,10.009,28.928,15.66,58.943,20.445,89.176.217,12.18,2.392,25.883-4.133,36.975-6.09,10.875-18.266,16.1-29.8,19.358-41.98,10.875-85.914.65-127.894,10.875-34.578,7.4-66.771,26.533-88.741,54.158-25.881,32.188-39.585,72.2-47.2,112.231-5.87,35.67-13.268,71.339-19.14,107.227,41.325.222,82.871-.217,124.411.222,16.53,0,33.5,9.133,40.238,24.791,8.7,20.012,6.743,42.635,3.915,63.73-3.48,23.708-9.135,47.2-19.793,68.946-8.922,18.488-23.708,35.455-43.936,41.98-10.44,4.133-21.75,3.263-32.843,3.263-36.545,0-73.085.433-109.621,0-5.873,26.755-9.788,54.158-15.008,81.346-9.566,52.851-18.92,105.922-28.493,158.994-.217,1.742-.435,5.438-.435,7.4,17.183.87,34.365,0,51.548.433,127.456,0,255.13-.222,382.8,0a76.205,76.205,0,0,0,39.585-9.57c7.178-2.608,11.528-8.918,17.835-12.4,6.09-3.48,7.83-10.653,13.05-15.225,5.655-10.005,11.527-20.441,11.963-32.193a19.508,19.508,0,0,0,3.263-.433C1594.521,973.534,1595.178,573.33,1594.743,173.125Z" transform="translate(2314.811 140.464)" stroke="#fcd109" stroke-width="0.094" fill="url(#linear-gradient)"/>
    <path id="Path_139" data-name="Path 139" d="M247.675,50.411c18.488-5.873,37.845-1.958,56.772-3.263q532.772.326,1065.54,0c21.1-.87,39.586,11.093,59.161,17.183,15.66,6.308,31.973,11.31,47.633,18.053,3.263,1.305,5.655,4.133,8.043,6.525-.217,28.71,0,57.638,0,86.566.222,7.613-1.088,15.443,1.523,22.838,4.572.652,6.96,4.133,10.009,6.96,14.355,6.525,26.531,17.183,39.581,25.883,19.575,13.92,40.46,26.1,59.6,40.456a36.248,36.248,0,0,1-1.522,16.748c-1.953,6.09-.653,12.615-1.305,18.705q-772.9.326-1545.355.217c-1.088-7.178.87-14.355-2.175-21.1-.435-5.655-2.393-13.05,3.045-16.965,21.75-15.225,44.806-28.928,66.116-45.023,13.272-8.483,26.1-17.183,38.933-25.883,2.61-4.35,1.74-9.788,1.74-14.573,0-31.538,0-63.076.217-94.614,7.4-9.57,20.232-10.658,30.45-15.443,20.671-7.83,41.552-15.443,62-23.273m1.305,3.7c-27.84,10.658-55.9,20.88-83.738,31.538-3.7.653-5.659,3.915-7.613,6.743.217,1.74.435,4.785.435,6.525-.222,26.1,0,52.2-.222,78.3.222,6.525-.653,13.05,1.74,18.923a53.962,53.962,0,0,1-9.353,7.83C118.692,224.413,88.242,246.6,56.7,266.826c-5.438,3.263-11.528,7.613-9.788,14.79-1.088,3.915.87,7.178,5,6.09,68.3-.435,136.374.435,204.674-.652,101.574,0,202.93.217,304.5,0l1.523-.653c4.568,1.088,9.131.653,13.916.653q276.011,0,552.237,0c57.858.217,115.931,0,174,0,95.7,0,191.622.87,287.323.435,2.828-.652,3.7-2.61,2.61-6.09-.222-3.48,1.088-8.265-2.61-10.44-15.225-7.178-28.275-18.27-42.848-26.97-5.216-4.35-11.963-6.743-15.878-12.615-15.008-8.483-28.928-18.923-43.72-28.275-2.83-1.74-5-4.568-7.393-6.96a52.985,52.985,0,0,0,1.74-14.355c-.217-27.623,0-55.246-.217-82.868.652-4.35.433-9.353-3.484-12.18-26.1-9.353-51.979-19.358-77.866-28.928-8.048-3.915-16.965-6.09-25.665-7.4H263.109c-4.776.217-9.344,2.61-14.129,3.7Z" transform="translate(2314.669 0)" fill="#f8f3b5" stroke="#f8f3b5" stroke-width="0.094"/>
    <path id="Path_140" data-name="Path 140" d="M96.82,70.9c19.14,8.048,39.581,12.615,58.943,20.445,10.44,4.133,13.7,15.443,18.27,24.578-4.572,4.568-10.009,8.265-15.447,11.745-20.01,13.485-40.455,26.535-60.248,40.455-2.393-5.873-1.518-12.4-1.74-18.923.222-26.1,0-52.2.222-78.3ZM1361.593,91.345c19.358-7.613,39.585-12.833,58.948-20.445.217,27.623,0,55.246.217,82.868a52.985,52.985,0,0,1-1.74,14.355c-16.965-11.745-34.148-22.838-51.113-34.365-8.265-6.09-17.4-10.658-24.8-18.053,4.568-9.135,8.048-20.228,18.483-24.36Z" transform="translate(2375.913 28.014)" fill="#f7b402" stroke="#f7b402" stroke-width="0.094"/>
    <path id="Path_141" data-name="Path 141" d="M266.68,84.912c23.925-5.655,50.678,15.66,48.721,40.673.217,24.578-25.67,44.588-49.373,38.933-9.57-3.263-18.71-8.265-24.578-16.748-7.613-11.528-9.357-26.97-3.263-39.585,4.35-12.18,16.1-20.445,28.493-23.273Zm620.534,13.7c10.005-11.093,25.883-17.4,40.673-13.485,11.093,3.263,21.968,10.44,26.753,21.315,9.57,18.705,2.175,43.935-16.53,53.723-16.535,9.135-37.411,4.785-50.026-8.483C875.252,137.113,874.378,113.188,887.215,98.615Z" transform="translate(2537.961 43.365)" fill="#bda727" stroke="#bda727" stroke-width="0.094"/>
    <path id="Path_142" data-name="Path 142" d="M218.678,103.463c5.438-3.48,10.875-7.178,15.447-11.745l1.518,1.523c1.523,11.31.435,22.838.87,34.148-.652,33.93.653,68.078-.87,102.009-63.293,0-126.582-.435-189.88,0-1.74-7.178,4.35-11.528,9.788-14.79,31.538-20.228,61.988-42.413,93.526-62.858a53.962,53.962,0,0,0,9.353-7.83c19.793-13.92,40.238-26.97,60.248-40.455Zm1182.339-4.35a13.525,13.525,0,0,1,2.175-7.613c7.4,7.4,16.534,11.963,24.8,18.053,16.965,11.528,34.148,22.62,51.113,34.365,2.392,2.393,4.568,5.22,7.393,6.96,14.792,9.353,28.708,19.793,43.72,28.275,3.915,5.873,10.656,8.265,15.878,12.615,14.573,8.7,27.623,19.793,42.848,26.97,3.7,2.175,2.393,6.96,2.61,10.44-63.3.218-126.373-.217-189.662.218-1.088-8.7-.435-17.4-.652-25.883,0-34.8-.431-69.6-.217-104.4Z" transform="translate(2315.825 52.22)" fill="#f7e62d" stroke="#f7e62d" stroke-width="0.094"/>
    <path id="Path_143" data-name="Path 143" d="M1591.555,279.588c-63.3.218-126.373-.217-189.662.218-1.088-8.7-.435-17.4-.653-25.883,0-34.8-.435-69.6-.222-104.4a13.526,13.526,0,0,1,2.175-7.613c4.572-9.135,8.048-20.228,18.488-24.36,19.358-7.613,39.586-12.833,58.948-20.445.653-4.35.435-9.353-3.484-12.18-26.1-9.353-51.979-19.358-77.866-28.928-8.048-3.915-16.965-6.09-25.665-7.4H261.958c-4.785.217-9.353,2.61-14.138,3.7-27.84,10.658-55.9,20.88-83.738,31.538-3.7.653-5.659,3.915-7.613,6.743.217,1.74.435,4.785.435,6.525,19.14,8.048,39.581,12.615,58.943,20.445,10.44,4.133,13.7,15.443,18.27,24.578l1.518,1.523c1.523,11.31.435,22.838.87,34.148-.653,33.93.653,68.078-.87,102.009-63.293,0-126.582-.435-189.88,0-1.088,3.915.87,7.178,5,6.09,68.3-.435,136.374.435,204.674-.653,101.574,0,202.93.218,304.5,0l1.523-.653c4.568,1.088,9.131.653,13.916.653q276.011,0,552.237,0c57.858.218,115.931,0,174,0,95.7,0,191.622.87,287.323.435,2.836-.652,3.706-2.61,2.619-6.09ZM460.325,149.739c4.35-12.18,16.091-20.445,28.493-23.273,23.925-5.655,50.678,15.66,48.721,40.673.218,24.578-25.67,44.588-49.373,38.933-9.57-3.263-18.71-8.265-24.578-16.748-7.613-11.528-9.353-26.97-3.263-39.585Zm649.027-9.57c10.005-11.093,25.883-17.4,40.673-13.485,11.093,3.263,21.968,10.44,26.753,21.315,9.57,18.705,2.175,43.936-16.53,53.723-16.535,9.135-37.411,4.785-50.026-8.483C1097.389,178.666,1096.515,154.741,1109.352,140.169Z" transform="translate(2315.824 1.811)" stroke="#fcd109" stroke-width="0.094" fill="url(#radial-gradient)"/>
    <path id="Path_144" data-name="Path 144" d="M566.914,211.585c3.041.653-15.852-18.153-12.154-19.023,3.48.435,16.674-9.807,32.625-1.451s11.993,27.912,10.183,35.164c-2.153,8.631-7.647,14.138-12,18.488-2.392,1.958-7.756,5-11.019,4.785,1.958-10.658-4.35-12.4-4.785-23.273Z" transform="translate(2913.698 165.397)" stroke="#fcd109" stroke-width="0.094" fill="url(#linear-gradient-2)"/>
    <path id="Path_145" data-name="Path 145" d="M256.4,224.943c-.435,10.875-6.747,12.615-4.785,23.273-3.263.218-8.63-2.828-11.021-4.785-4.35-4.35-9.838-9.857-12-18.488-1.81-7.249-5.766-26.8,10.183-35.164s29.145,1.884,32.625,1.451c3.7.87-15.195,19.675-12.154,19.023l-2.854,14.69Z" transform="translate(2528.916 163.83)" stroke="#fcd109" stroke-width="0.094" fill="url(#linear-gradient-3)"/>
    <path id="Path_146" data-name="Path 146" d="M880.111,264.341c3.271-2.841,5.446-2.841,9.8-2.841-26.1,56.551-56.551,113.1-102.333,157.13a153.475,153.475,0,0,1-15.484,12.132c-5.242,3.835-10.379,7.432-15.488,11.1-5,3.473-9.975,6.967-14.816,10.61-12.4,6.743-23.273,16.1-36.975,20.228-25.013,11.963-51.979,20.01-79.167,25.665-10.658,1.742-21.533,4.35-32.408,4.568-13.485,3.917-27.84,1.087-41.543,1.957-7.613,1.305-14.359-3.045-21.75-2.175q-9.624-1.36-19.179-3.265-9.684-1.979-19.229-4.565c-99.707-31.1-197.584-107.231-226.1-210.186a115.648,115.648,0,0,1-1.936-21.022q4.564,9.135,9.464,18.127C313.526,370.251,394,439.852,489.076,460.839c7.717,3.519,16.069,2.286,23.466,5.331,6.743,0,13.268-.218,19.793,1.957,22.4.433,44.806.218,67.208.218,3.041.217,5.868-1.305,8.918-1.958,37.337-1.266,73.92-11.449,107.984-26.892q10.225-4.633,20.125-9.868,8.662-4.559,16.9-9.87,8.079-5.208,15.7-11.084c40.268-31.9,75.069-73.222,98.7-120.744C872.361,279.376,876.476,271.457,880.111,264.341Z" transform="translate(2572.027 251.974)" fill="#bda727" stroke="#bda727" stroke-width="0.094"/>
    <path id="Path_147" data-name="Path 147" d="M896.951,384.588c64.6-37.845,139.423-56.116,213.809-59.6a335.887,335.887,0,0,1,72.428,1.523c15.66,3.7,31.755,8.048,44.153,18.705-6.308.435-12.4-2.393-18.705-3.263-17.835-3.48-36.323-2.175-54.376-2.61-52.422,0-105.271,4.133-155.949,18.488-26.535,8.048-53.071,17.4-77.213,31.32C879.338,412.21,841.71,442.661,811.259,479.2c-54.376,62.425-86.349,141.594-101.791,222.29-7.4,43.279-15.882,86.342-22.62,129.842-10.875,1.088-21.968.437-32.843.437q-71.776-.326-143.552-.866c-10.223.429-20.232-1.958-30.45-1.309-87,.433-174-.217-261-.217l1.74-.655c64.6-6.747,129.414-14.359,194.012-20.663,81.994-.433,163.779-.222,245.778,0,2.606-.433,7.178.866,7.613-2.83,6.743-35.233,13.268-70.466,20.006-105.706,9.357-48.932,24.147-97.219,46.985-141.807A418.215,418.215,0,0,1,896.951,384.588Z" transform="translate(2519.738 325.074)" fill="#0d69b3" stroke="#0d69b3" stroke-width="0.094"/>
    <path id="Path_148" data-name="Path 148" d="M1136.6,349.388c50.678-14.355,103.531-18.488,155.949-18.488,18.053.435,36.54-.87,54.376,2.61,6.3.87,12.393,3.7,18.705,3.263,10.223,8.265,16.313,20.445,20.88,32.625,10.01,28.928,15.66,58.943,20.445,89.176.217,12.18,2.392,25.883-4.133,36.975-6.09,10.875-18.266,16.1-29.8,19.358-41.98,10.875-85.913.65-127.894,10.875-34.579,7.4-66.771,26.533-88.741,54.158-25.88,32.188-39.585,72.2-47.2,112.231-5.87,35.67-13.268,71.339-19.14,107.227-2.61,8.05-4.13,16.75-5.655,25.235,41.1.655,82.216,0,123.324.433,15.656-.433,31.316.433,46.98-.655,8.7,20.013,6.743,42.635,3.915,63.73-3.48,23.708-9.135,47.2-19.793,68.946-8.922,18.488-23.708,35.455-43.936,41.98-10.44,4.133-21.75,3.263-32.843,3.263-36.545,0-73.085.433-109.621,0-5.873,26.755-9.788,54.158-15.008,81.346-9.566,52.851-18.92,105.922-28.493,158.994-.217,1.742-.435,5.438-.435,7.4v.217c-95.049,0-189.88.222-284.928,0,.22-.866.435-2.392.653-3.262.222-1.087.435-3.48.655-4.783.22,1.742.433,5,.655,6.525,5.87.655,16.53,3.7,18.053-4.783,14.79-80.043,28.493-160.519,43.718-240.562a45.808,45.808,0,0,0-18.053-.217c-.866,3.045-1.74,6.088-2.828,9.133l1.305-9.788c-59.156-.222-118.539,0-177.7-.222-14.359-.429-29.145,0-43.5-1.738-24.578-1.088-49.373-.217-73.951-2.612-30.45,0-60.683-2.825-91.134-2.825-23.925-2.392-48.068-1.525-72.211-2.612-15.656-1.953-31.755-1.087-47.629-1.738-25.883-2.83-52.2-.866-78.083-3.7-27.405.222-54.811-2.175-82.216-2.825a3.091,3.091,0,0,0,.435-1.3c9.135.217,18.053-.437,27.188-.655,20.228-2.608,40.673-.87,60.9-3.7,21.1,0,41.978-2.83,63.076-2.83,18.705-2.608,37.628-1.088,56.329-3.7,21.972,0,43.5-2.83,65.473-3.045,18.053-2.393,36.323-1.088,54.376-3.48,21.1.217,41.978-3.045,63.076-2.83,20.663-2.4,41.756-1.742,62.419-3.917-1.953-8.045-3.48-16.091-5.216-24.143-1.523-5-7.613-3.917-11.528-4.568q-70.8-10.12-141.159-20.012c3.045-2.4,7.178-1.309,10.658-1.738,36.54-2.834,72.863-6.1,109.4-8.7,8.265-.437,16.313-1.958,24.578-2.175-3.7-11.312-5.873-23.708-10.875-34.15-78.079-11.963-156.167-22.62-234.033-35.451,20.228-3.263,40.673-4.787,60.9-6.962,87,0,174,.655,261,.217,10.218-.65,20.228,1.742,30.45,1.309q71.776.649,143.552.866c10.875,0,21.968.655,32.843-.433,6.743-43.5,15.225-86.568,22.62-129.847,15.443-80.7,47.415-159.864,101.791-222.285,30.45-36.543,68.078-66.993,109.839-90.048C1083.534,366.788,1110.069,357.435,1136.6,349.388Z" transform="translate(2381.445 333.521)" fill="#107bd4" stroke="#107bd4" stroke-width="0.094"/>
    <path id="Path_149" data-name="Path 149" d="M753.187,546.3c41.325.222,82.873-.217,124.411.222,16.53,0,33.5,9.133,40.238,24.791-15.66,1.088-31.32.222-46.981.655-41.108-.433-82.22.222-123.324-.433,1.523-8.485,3.041-17.185,5.655-25.235ZM432.37,750.1a45.809,45.809,0,0,1,18.053.217C435.2,830.362,421.5,910.837,406.705,990.88c-1.523,8.478-12.182,5.438-18.053,4.783-.222-1.52-.435-4.783-.652-6.525,13.7-76.559,26.966-153.339,41.543-229.9,1.087-3.052,1.958-6.092,2.828-9.14Z" transform="translate(2718.317 586.62)" fill="#0d69b3" stroke="#0d69b3" stroke-width="0.094"/>
    <path id="Path_150" data-name="Path 150" d="M949.14,217.772c-1.74-3.263-1.955-7.178-1.955-10.875l-1.742.217c-2.608-9.57-10.653-18.705-21.1-19.14-7.832-.653-17.62-.435-22.183,6.96-8.7,11.745-4.572,26.753-5,40.02,0,.87.22,2.393.22,3.263a152.02,152.02,0,0,1-2.61,26.318,18.7,18.7,0,0,0-1.955,8.483,200.583,200.583,0,0,1-21.1,59.161,21.953,21.953,0,0,0-4.133,8.483c-6.525,11.31-14.355,21.75-22.4,32.19a27.891,27.891,0,0,0-3.482,3.7c-5.657,6.96-11.743,12.833-18.055,18.923-1.52.87-2.608,1.957-3.915,2.828a141.651,141.651,0,0,1-24.578,19.358c-1.087.652-2.175,1.523-3.482,2.393-55.683,36.758-123.322,51.983-189.227,52.636A353.454,353.454,0,0,1,439.749,438.32c-.866-.435-3.041-1.305-3.915-1.74-8.48-4.568-17.181-8.483-25.013-14.138-1.74-.87-3.48-1.957-5.438-2.827a166.253,166.253,0,0,1-22.838-16.1c-2.393-2.175-5-3.915-7.613-5.873-7.83-6.308-15.878-13.05-22.616-20.663-1.74-1.958-3.484-3.7-5.22-5.438-23.7-24.578-42.191-54.593-51.979-87.219-9.357-25.883-8.048-54.158-9.135-81.346-7.834-11.963-24.36-18.705-37.41-11.31-5.438,3.915-6.09,11.093-10.223,16.1-6.743,71.776,23.925,143.334,72.863,195.1a3.527,3.527,0,0,0,2.4,3.48c8.7,8.048,17.178,16.313,25.878,24.143a34.609,34.609,0,0,0,5.22,4.35c8.7,7.178,18.053,13.7,27.188,20.445a46.278,46.278,0,0,0,5.438,3.48c11.963,6.96,23.268,15.225,36.105,20.01a28.327,28.327,0,0,0,3.263,2.175c41.325,19.793,85.913,33.278,131.589,37.628A70.3,70.3,0,0,1,563.3,520.1c21.75,1.3,43.5.653,65.251.218,67.2-5.873,136.592-22.185,192.707-61.771l.653.87c1.74-1.523,3.263-2.828,5-4.133,8.922-6.525,17.622-13.485,26.322-20.663a66.067,66.067,0,0,0,6.09-5.22c9.568-10.44,20.663-20.01,28.71-31.973l1.3.652c.653-1.087,1.74-3.263,2.4-4.35,7.391-10.005,14.138-20.445,20.663-30.885.431-.652,1.518-1.74,1.953-2.393l-.866-.87c.652-.87,2.175-2.61,2.828-3.48,11.963-24.36,22.616-49.808,26.318-76.778a3.73,3.73,0,0,0,2.395-3.48c.22-8.7,3.263-16.965,2.395-25.665,1.934-10.658,2.153-21.533,1.718-32.408Z" transform="translate(2541.387 165.3)" fill="#fff" stroke="#fff" stroke-width="0.094"/>
    <g id="Group_74" data-name="Group 74" transform="translate(2778.812 353.037)" clip-path="url(#clip-path)">
      <path id="Path_151" data-name="Path 151" d="M230.167,211.485c17.631,5.531,58.136-8.385,69.6,4.35m-59.45,49.3c16.9-5.879,53.125-19.8,68.15-11.6m-50.75,65.251c8.167,2.645,24.267-11.7,32.264-15.908,11.9-6.258,24.1-11.053,37.336-13.091m-43.5,85.55a122.956,122.956,0,0,1,30.677-30.418c12.063-8.426,45.062-30.94,59.224-23.234m-65.251,94.253c9.561-7.6,13.455-21.048,23.495-29.034,12.145-9.661,30.753-11.395,43.207-17.367M349.43,446.022c2.86-21.028,24.212-46.4,44.588-44.588m-13.05,73.953c10.766-1.079,19.875-25.178,27.155-33.345,10.91-12.234,22.211-16,36.643-20.306m-1.449,79.752c-.7-15.217,15.027-58.845,33.352-56.551m13.05,71.052c-.763-17.983,8.535-72.074,30.45-73.951m17.4,102.951c-4.156-25.148-3.887-61.527,15.947-79.752m43.5,85.552c-2.212-20.963-23.042-63.339,0-79.752m63.8,65.251c-9.944-11.53-15.725-57.01-11.6-69.6m72.5,59.45c-7.669-13.927-17.174-27.005-20.08-43.172-1.736-9.661,1.307-23.425-.222-30.779m71.054,52.2c-16.637-10.882-21.254-50.876-15.952-68.15m65.251,46.4c-11.832-25.385-24.449-45.067-24.652-73.951m72.5,27.551c-18.388-12.369-41.852-34.855-39.15-59.45m89.9,20.3c-27.938-6.19-61.466-31.188-78.3-53.651m101.5,5.8c-20.154-4.322-86.746-30.3-82.651-56.551m104.4,5.8c-28.08-10.294-68.931-19.549-91.351-39.15m105.85-7.252c-17.687,1.514-43.026-7.049-61-10.151-19.962-3.443-38.472-10.17-57.9-14.5m101.5-20.3c-34.115,2.042-66.125-9.631-97.15-20.3" transform="translate(-245.952 -188.796)" fill="none" stroke="#d1d1d1" stroke-width="2"/>
    </g>
    <g id="Group_75" data-name="Group 75" transform="translate(-1925.412 472.435)">
      <path id="Path_153" data-name="Path 153" d="M-869.889,246.152c31.523-4.757,67.8-7.73,94.555,11.893,16.65,12.485,22.6,35.081,21.406,55.3,1.19,33.3-14.271,68.981-44,86.229-26.17,14.273-57.684,15.456-86.827,12.485-19.623-2.375-39.246-13.076-49.356-30.918-22.6-51.737,5.349-124.883,64.22-134.993Zm-943.156,37.465c1.781-17.842,17.84-33.9,36.273-33.3,137.375,0,274.149.592,410.925,0,14.866-1.19,30.924,5.348,38.056,18.431,10.107,17.842,1.19,37.465,0,55.9-4.159,24.971-2.973,58.278-32.108,67.789-99.907,2.973-199.815,0-299.723,1.19-9.514,63.032-18.433,125.473-27.951,187.914,0,2.379.6,7.737.6,10.107,73.144-.592,146.288,0,219.432-.592,20.221-1.19,41.626,16.063,39.842,37.465-1.782,22-6.541,43.411-9.512,65.416-2.384,14.864-14.275,28.543-29.737,31.516-81.472,1.784-164.134-1.784-245.6,1.784-13.087,89.8-28.549,179.588-42.228,269.388-1.779,17.842-16.056,33.3-33.9,33.891q-50.839.9-101.687,0c-22,.6-39.844-23.79-33.9-44.6q54.429-351.437,111.211-702.3Zm604.179-32.116c30.927-2.375,62.441-.592,93.367-1.183,19.031-1.19,38.061,13.674,39.84,33.3,0,15.458-4.163,30.922-5.945,46.382-24.978,159.375-50.548,318.75-75.528,478.123-3.567,25.57-10.107,52.923-2.375,79.09,8.92,26.163,48.758,14.864,58.276,42.217,5.946,22-.6,45.195-2.382,67.8-1.781,29.732-35.679,36.271-58.867,42.822-50.546,9.511-111.8,2.375-148.078-39.257-26.166-30.322-27.951-73.144-22.594-111.2q47.274-303.282,95.148-607.165c1.786-14.868,13.677-28.545,29.137-30.927Zm1180.43,32.116c1.779-17.842,17.84-33.3,35.679-33.3H97.634c22.6-.6,41.036,23.786,35.681,45.19C112.5,427.527,91.1,559.547,70.283,691.558c31.516-4.755,67.2-10.7,89.2-36.271,36.864-41.632,67.2-89.792,89.794-140.339,7.728-19.627,11.893-48.17,37.465-51.74,33.9-1.19,68.385-.6,102.283,0,23.194-.6,40.438,25.57,32.708,46.976-8.92,31.525-23.786,60.659-39.246,88.611C347.995,654.7,309.94,710,259.982,754c22,66.008,49.956,130.234,74.336,195.056,7.134,21.407,24.386,46.38,8.326,67.2-18.44,24.974-52.929,12.48-78.5,15.453-26.761-2.973-65.414,10.705-80.282-19.621-27.951-64.822-51.139-131.419-79.689-196.242-16.65.589-33.893,1.19-50.548-.594-1.183,2.379-3.565,7.132-4.757,9.516-8.922,59.465-18.433,118.935-27.951,178.4-3.569,14.272-14.869,26.764-30.326,27.953-31.516,1.19-63.63.589-95.743.589-13.681,0-26.165-8.917-32.114-20.811s-2.382-25.57-.589-38.652q55.3-344.318,109.417-688.632Zm1652.606,64.82c4.165-16.656,20.217-27.951,36.873-27.36,23.788.6,48.168-.592,72.546.6,19.627.592,35.088,20.217,32.706,39.246-3.567,33.9-11.9,67.8-14.27,101.687,23.19,0,46.976-.592,70.171,0,20.815,0,38.063,21.411,34.492,41.626-2.975,18.442-7.138,36.284-10.112,54.711-2.973,15.467-16.052,27.953-30.918,30.331-28.547,1.784-56.494-1.19-84.445,1.784-11.893,79.682-24.976,159.366-37.465,239.061-1.788,18.433-2.973,39.244,7.73,55.3,16.058,19.625,44,12.485,66.606,14.868,17.84,5.348,29.137,24.978,26.161,42.822-2.973,20.213-3.567,40.434-8.322,60.055-7.136,22-32.708,26.168-52.335,31.516-54.115,14.277-116.555,14.277-164.719-17.244-44.6-30.331-51.739-89.2-46.983-139.156C1534.368,781.945,1554,686.2,1564.7,589.273c-16.65.592-36.871,2.973-49.356-11.9-14.272-14.864-7.136-36.869-4.759-55.309,3.571-19.623,2.973-45.193,24.384-55.9,17.241-6.545,36.871-1.781,55.3-4.163,11.3-38.052,22-76.108,33.893-113.571Zm-335.991,192.67c37.465-37.465,82.658-68.387,134.395-83.845,22.6-10.112,51.737,8.92,51.146,33.9-4.163,32.708-11.9,64.816-17.248,96.928-2.384,16.058-16.058,29.737-32.116,31.521-58.277,10.105-108.823,45.186-149.261,86.818-10.107,12.493-24.976,24.384-26.759,41.628-12.485,83.253-25.57,166.509-38.652,249.762-1.781,17.837-17.25,35.09-35.681,33.9h-90.394c-20.811,1.19-39.244-19.621-36.867-40.438,26.166-164.728,52.336-328.853,77.9-493.583,1.19-16.648,13.085-32.7,30.326-34.489,22-1.19,44.005-.6,66.606-.6,17.839,0,34.487,16.056,34.487,34.494,0,25.57-2.375,51.733-2.971,77.9,14.275-8.913,23.194-23.188,35.087-33.893Zm-2222.9-75.523c32.112-6.538,65.414-1.185,97.526-2.973,18.438-2.375,38.061,9.516,41.032,27.953,2.384,16.648-2.382,32.706-4.165,48.764Q-836.9,768.58-872.884,997.821c-1.783,17.252-16.05,34.494-34.49,33.9-32.11,0-64.224.6-96.928-.589-20.221-2.384-35.09-25.569-29.735-45.2,25.572-158.772,49.956-316.96,75.526-475.741C-957.321,492.941-952.564,472.72-934.727,465.583ZM989.648,473.32c-88.608-16.656-178.994-28.549-268.794-19.63-80.28,10.112-161.156,46.389-210.51,112.4-68.389,86.82-91.584,203.38-76.126,311.614,8.33,51.733,30.925,104.066,73.15,136.176,39.246,30.331,92.173,34.489,139.75,26.759,66.6-13.085,123.091-55.892,169.48-103.47,2.375,20.217-2.382,40.438-1.19,60.063,1.19,18.429,17.84,35.675,36.273,34.485h60.661c17.84,0,32.708-16.643,33.9-33.9q38.354-241.735,76.117-482.279c3.563-20.221-12.487-39.844-32.71-42.219ZM822.55,753.409c-23.791,44.6-57.094,85.039-94.559,119.524-21.4,17.842-48.764,36.279-77.9,30.335-28.547-5.947-42.226-35.679-48.764-61.253-14.866-66.6-1.19-139.156,36.271-196.835a127.123,127.123,0,0,1,74.336-55.309c43.409-10.706,89.2-5.353,131.428,6.54l2.375,2.384c-5.351,51.733-15.462,102.877-23.19,154.614Zm-1000.238-89.2c-.6-59.47-16.652-121.908-58.277-166.511-28.543-31.516-71.363-47.572-112.988-46.983-68.985-2.373-133.8,31.525-184.349,76.715-11.3,8.924-19.031,22.007-31.516,29.141,0-19.63,1.781-39.251,1.183-59.467.6-18.44-16.65-34.494-34.49-34.494h-60.659c-19.025,0-34.49,16.654-35.679,35.085q-56.2,356.807-112.986,713.612c-5.348,22,13.683,44.6,36.28,44.005,33.3-.594,67.2,2.379,99.9-2.384,26.168-7.136,25.569-37.465,29.735-59.465,9.511-52.333,16.058-104.665,22-157.592,117.151,22.6,253.332,7.141,340.748-81.47,71.358-77.9,104.658-185.534,101.093-290.194ZM-344.2,724.268c-3.565,54.711-23.192,110.017-61.249,149.855-49.356,46.985-124.292,40.438-184.947,24.389a40.639,40.639,0,0,1-3.567-7.136c9.514-51.737,14.273-104.071,26.168-155.212,33.3-54.706,73.736-110.017,131.419-140.341,21.409-10.107,50.548-7.73,66.01,11.9,26.165,32.706,28.545,76.711,26.165,116.551Z" transform="translate(1925.412 -242.632)" fill="#107bd4" stroke="#107bd4" stroke-width="0.101"/>
    </g>
  </g>
</svg>
