<svg xmlns="http://www.w3.org/2000/svg" width="121" height="36.427" viewBox="0 0 121 36.427"><defs><style>.a{fill:#f90;}.a,.b{fill-rule:evenodd;}</style></defs><g transform="translate(-163.5 -263.1)"><path class="a" d="M261.664,323.106c-7.005,5.18-17.195,7.939-25.983,7.939a47.111,47.111,0,0,1-31.757-12.1c-.637-.594-.085-1.4.722-.934a63.077,63.077,0,0,0,56,3.439c1.189-.467,2.165.807,1.019,1.656Z" transform="translate(-23.102 -31.518)"/><path class="a" d="M335.3,318.047c-.892-1.146-5.944-.552-8.194-.255-.679.085-.807-.509-.17-.934,4.033-2.845,10.614-2,11.378-1.061s-.212,7.557-3.991,10.7c-.594.467-1.146.212-.892-.425C334.283,323.949,336.193,319.236,335.3,318.047Z" transform="translate(-93.81 -29.813)"/><path class="b" d="M233.425,267.091v-2.76a.646.646,0,0,1,.679-.679h12.312a.707.707,0,0,1,.722.679v2.335c0,.382-.34.892-.934,1.741l-6.368,9.086a13.832,13.832,0,0,1,7.005,1.486,1.265,1.265,0,0,1,.637,1.061v2.929c0,.425-.425.892-.892.637a14.045,14.045,0,0,0-12.992.042.666.666,0,0,1-.892-.637v-2.8a3.173,3.173,0,0,1,.467-1.868l7.387-10.572h-6.411a.707.707,0,0,1-.722-.679ZM188.549,284.2h-3.736a.767.767,0,0,1-.679-.637v-19.19a.707.707,0,0,1,.722-.679h3.481a.692.692,0,0,1,.679.637v2.5h.085a4.948,4.948,0,0,1,4.925-3.566c2.335,0,3.821,1.146,4.84,3.566a5.321,5.321,0,0,1,5.18-3.566,5.263,5.263,0,0,1,4.331,2.123c1.189,1.613.934,3.948.934,6.029v12.142a.707.707,0,0,1-.722.679h-3.694a.729.729,0,0,1-.679-.679V273.374a25.463,25.463,0,0,0-.085-3.609,1.97,1.97,0,0,0-2.208-1.656,2.5,2.5,0,0,0-2.25,1.571,11.764,11.764,0,0,0-.34,3.694v10.189a.707.707,0,0,1-.722.679h-3.736a.729.729,0,0,1-.679-.679V273.374c0-2.123.34-5.307-2.293-5.307-2.675,0-2.59,3.057-2.59,5.307v10.189a.746.746,0,0,1-.764.637Zm69.2-20.931c5.562,0,8.576,4.755,8.576,10.826,0,5.859-3.312,10.529-8.576,10.529-5.434,0-8.406-4.755-8.406-10.7C249.3,267.94,252.318,263.27,257.753,263.27Zm0,3.948c-2.76,0-2.929,3.779-2.929,6.114s-.042,7.345,2.887,7.345c2.887,0,3.057-4.033,3.057-6.5a18.578,18.578,0,0,0-.552-5.095,2.348,2.348,0,0,0-2.462-1.868ZM273.5,284.2h-3.736a.729.729,0,0,1-.679-.679V264.289a.734.734,0,0,1,.722-.637h3.481a.726.726,0,0,1,.679.552v2.929h.085c1.061-2.632,2.5-3.864,5.095-3.864a4.944,4.944,0,0,1,4.373,2.25c.977,1.528.977,4.118.977,5.986v12.1a.7.7,0,0,1-.722.594h-3.736a.772.772,0,0,1-.679-.594V273.162c0-2.123.255-5.18-2.335-5.18a2.458,2.458,0,0,0-2.165,1.528,8.814,8.814,0,0,0-.594,3.651v10.359a.778.778,0,0,1-.764.679Zm-49.886-9.171a7.591,7.591,0,0,1-.679,3.991,3,3,0,0,1-2.59,1.7c-1.443,0-2.293-1.1-2.293-2.717,0-3.184,2.845-3.779,5.562-3.779Zm3.779,9.128a.768.768,0,0,1-.892.085,9.376,9.376,0,0,1-2.165-2.5c-2.038,2.08-3.524,2.717-6.156,2.717-3.142,0-5.6-1.953-5.6-5.816a6.355,6.355,0,0,1,3.991-6.114c2.038-.892,4.882-1.061,7.048-1.316v-.467a4.586,4.586,0,0,0-.467-2.717,2.514,2.514,0,0,0-2.08-.976,2.827,2.827,0,0,0-3.014,2.25c-.085.34-.3.679-.637.679l-3.609-.382a.653.653,0,0,1-.552-.764c.849-4.415,4.8-5.732,8.364-5.732a8.4,8.4,0,0,1,5.647,1.868c1.826,1.7,1.656,3.991,1.656,6.453v5.816a5.26,5.26,0,0,0,1.4,3.481c.255.34.3.764,0,.976-.807.637-2.165,1.826-2.929,2.462Zm-52.815-9.128a7.591,7.591,0,0,1-.679,3.991,3,3,0,0,1-2.59,1.7c-1.444,0-2.293-1.1-2.293-2.717,0-3.184,2.845-3.779,5.562-3.779Zm3.736,9.128a.768.768,0,0,1-.892.085,9.376,9.376,0,0,1-2.165-2.5c-2.038,2.08-3.524,2.717-6.156,2.717-3.142,0-5.6-1.953-5.6-5.816a6.355,6.355,0,0,1,3.991-6.114c2.038-.892,4.882-1.061,7.048-1.316v-.467a4.586,4.586,0,0,0-.467-2.717,2.514,2.514,0,0,0-2.08-.976,2.827,2.827,0,0,0-3.014,2.25c-.085.34-.3.679-.637.679l-3.609-.382a.653.653,0,0,1-.552-.764c.849-4.415,4.8-5.732,8.364-5.732a8.4,8.4,0,0,1,5.647,1.868c1.826,1.7,1.656,3.991,1.656,6.453v5.816a5.26,5.26,0,0,0,1.4,3.481c.255.34.3.764,0,.976-.807.637-2.165,1.826-2.929,2.462Z"/></g></svg>