<svg xmlns="http://www.w3.org/2000/svg" xmlns:xlink="http://www.w3.org/1999/xlink" width="6432" height="6324" viewBox="0 0 6432 6324">
  <defs>
    <clipPath id="clip-Artboard_4">
      <rect width="6432" height="6324"/>
    </clipPath>
  </defs>
  <g id="Artboard_4" data-name="Artboard – 4" clip-path="url(#clip-Artboard_4)">
    <rect width="6432" height="6324" fill="#fff"/>
    <g id="amazon-ar21" transform="translate(283 2263.874)">
      <path id="Path_136" data-name="Path 136" d="M2828.445,350.12c-339.083,250.4-832.159,384.1-1256.13,384.1-594.449,0-1129.676-219.82-1534.53-585.563-31.8-28.764-3.332-67.934,34.844-45.6,436.951,254.313,977.2,407.193,1535.232,407.193,376.383,0,790.417-77.872,1171.126-239.463,57.527-24.437,105.584,37.65,49.343,79.392m141.363-161.591c-43.262-55.54-286.468-26.191-396.494-13.213-33.324,4.093-38.41-24.963-8.419-45.835,194.1-136.686,512.718-97.223,549.959-51.447s-9.646,365.392-192.109,517.863c-28.062,23.385-54.721,10.933-42.269-20.111,40.924-102.31,132.828-331.6,89.331-387.316" transform="translate(808.467 1045.383)" fill="#f90" fill-rule="evenodd"/>
      <path id="Path_137" data-name="Path 137" d="M3389.322,210.112V77.284a32.74,32.74,0,0,1,33.616-33.616h594.683c19.059,0,34.376,13.739,34.376,33.616v113.71c-.234,19.059-16.369,44.022-44.782,83.485l-308.1,439.991c114.587-2.806,235.371,14.265,339.2,72.786,23.385,13.213,29.232,32.564,31.57,51.681V980.709c0,19.293-21.4,41.976-43.847,30.284-182.988-95.879-426.018-106.4-628.3.994-20.637,11.225-42.269-11.225-42.269-30.518V846.83c0-21.631.234-58.463,21.865-91.377L3734.37,243.436H3424.225c-19.059,0-34.376-13.446-34.376-33.324M1219.828,1039H1038.944c-17.3-1.286-30.985-14.265-32.33-30.81V79.564c0-18.591,15.551-33.324,34.844-33.324h168.724c17.539.76,31.57,14.265,32.856,30.985V198.595h3.333C1290.393,81.26,1373.118,26.539,1484.547,26.539c113.242,0,183.982,54.721,234.9,172.056C1763.3,81.26,1862.685,26.539,1969.379,26.539c75.826,0,158.785,31.278,209.414,101.55,57.293,78.106,45.6,191.641,45.6,291.144l-.409,586.148c0,18.591-15.551,33.616-34.844,33.616H2007.906c-17.539-1.286-32.564-15.785-32.564-33.616V512.54c0-39.17,3.508-136.92-5.086-174.044-13.447-62.321-53.961-79.919-106.4-79.919-43.847,0-89.565,29.231-108.156,76.118s-16.779,125.227-16.779,177.9v492.256c0,18.591-15.551,33.616-34.844,33.616H1522.841c-18.3-1.286-32.564-15.785-32.564-33.616l-.234-492.256c0-103.6,17.071-256.067-111.489-256.067-130.021,0-124.935,148.612-124.935,256.067v492.256c0,18.591-15.551,33.616-34.844,33.616M4564.015,27.3c268.461,0,413.8,230.577,413.8,523.709,0,283.252-160.6,507.924-413.8,507.924-263.083,0-407.193-230.577-407.193-517.863,0-289.1,145.338-514.472,407.193-514.472m1.521,189.595c-133.295,0-141.773,181.7-141.773,294.945s-1.754,355.746,140.194,355.746c140.194,0,146.858-195.441,146.858-314.53,0-78.34-3.332-172.056-26.893-246.362-20.345-64.66-60.8-89.857-118.329-89.857M5326.017,1039H5145.835c-17.539-1.286-32.563-15.785-32.563-33.616l-.234-928.856c1.52-17.071,16.545-30.284,34.844-30.284H5315.67C5331.455,47,5344.433,57.7,5348,72.2V214.262h3.333c50.628-126.981,121.6-187.549,246.6-187.549,81.848,0,160.306,29.231,211.227,109.442,46.771,74.248,46.771,199.241,46.771,289.1v584.628c-2.046,16.369-17.071,29.231-34.844,29.231H5639.963c-16.544-1.286-30.284-13.446-32.037-29.231V505.524c0-101.55,11.692-250.221-113.243-250.221-44.022,0-84.479,29.524-105.233,74.248-25.431,56.709-28.763,113.242-28.763,175.856V1005.5c-.233,18.591-16.019,33.616-35.37,33.616M2915.19,594.8c0,70.506,1.754,128.618-33.908,191.875-28.764,50.863-74.54,82.2-125.227,82.2-69.453,0-110.2-52.909-110.2-131.073,0-154.225,138.206-182.228,269.221-182.228v39.17m182.4,441.043c-11.985,10.7-29.231,11.459-42.678,4.326-60.042-49.869-70.974-73.078-103.83-120.609-99.27,101.257-169.718,131.541-298.277,131.541-152.412,0-270.8-93.891-270.8-281.966,0-146.858,79.392-246.83,192.927-295.7,98.218-43.262,235.371-50.863,340.253-62.848V387.137c0-43.029,3.332-93.891-22.216-131.073C2870.992,222.74,2828.723,209,2791.307,209c-68.986,0-130.372,35.37-145.338,108.741-3.04,16.37-15.025,32.33-31.57,33.09L2439.01,332.006c-14.732-3.332-31.277-15.2-26.893-38C2452.34,81.2,2644.8,17.126,2816.68,17.126c88.045,0,203.1,23.385,272.553,90.033,88.045,82.2,79.626,191.875,79.626,311.256V700.38c0,84.771,35.078,121.895,68.226,167.788,11.458,16.37,14.031,35.9-.76,48.115L3098,1036.95l-.234-.584M543.18,595.381c0,70.506,1.754,128.618-33.908,191.875-28.764,50.863-74.248,82.2-125.227,82.2-69.454,0-109.91-52.909-109.91-131.073,0-154.225,138.206-182.228,268.929-182.228v39.17m182.4,441.043c-11.985,10.7-29.231,11.458-42.678,4.326-60.041-49.869-70.155-73.078-103.83-120.609-99.27,101.257-169.542,131.541-298.277,131.541C128.562,1051.683,10,957.792,10,769.776c0-146.859,79.626-246.83,192.927-295.7,98.217-43.262,235.371-50.863,340.253-62.848V387.838c0-43.029,3.332-93.891-21.865-131.073C499.1,223.441,457.006,209.7,419.766,209.7c-68.986,0-130.547,35.37-146.157,108.741-3.04,16.37-15.025,32.33-31.278,33.09L66.709,332.708c-14.733-3.332-30.985-15.2-26.893-38C80.272,81.9,272.5,17.828,444.378,17.828c88.045,0,203.1,23.385,272.553,90.033,88.045,82.2,79.626,191.875,79.626,311.256V701.082c0,84.771,35.078,121.895,68.226,167.788,11.693,16.37,14.265,35.9-.585,48.115L726.227,1036.95l-.585-.584" transform="translate(0 0)" fill="#221f1f" fill-rule="evenodd"/>
    </g>
    <text id="FBA" transform="translate(5203 4586)" fill="#f90" font-size="1000" font-family="Montserrat-Bold, Montserrat" font-weight="700"><tspan x="-1019" y="0">FBA</tspan></text>
  </g>
</svg>
