<svg xmlns="http://www.w3.org/2000/svg" xmlns:xlink="http://www.w3.org/1999/xlink" width="656.131" height="740.422" viewBox="0 0 656.131 740.422"><defs><style>.a{fill:#e0e0e0;}.b{fill:#ebebeb;}.c{fill:#f5f5f5;}.d{fill:#e8505b;}.e{opacity:0.8;}.f{fill:#fff;}.g{fill:url(#a);}.h{fill:url(#b);}.i{opacity:0.3;}.j{fill:url(#d);}.k{fill:#ffbe9d;}.l{fill:#eb996e;}.m{fill:url(#e);}.n{opacity:0.6;}.o{fill:#263238;}.p{fill:#455a64;}.q{fill:url(#f);}.r{fill:url(#g);}.s{fill:url(#h);}.t{fill:url(#i);}.u{fill:url(#j);}.v{fill:url(#k);}.w{fill:url(#l);}.x{fill:url(#m);}.y{fill:url(#n);}.z{fill:url(#o);}.aa{fill:url(#p);}.ab{fill:url(#q);}.ac{fill:url(#r);}.ad{fill:url(#s);}.ae{fill:url(#t);}.af{fill:url(#u);}.ag{fill:url(#v);}.ah{fill:url(#w);}.ai{fill:url(#x);}.aj{fill:url(#y);}.ak{fill:url(#z);}.al{fill:url(#aa);}.am{fill:url(#ab);}.an{fill:url(#ac);}.ao{fill:url(#ad);}.ap{fill:url(#ae);}.aq{fill:url(#af);}.ar{fill:url(#ag);}.as{fill:url(#ah);}.at{fill:url(#ai);}.au{fill:url(#aj);}.av{fill:url(#ak);}.aw{fill:url(#al);}.ax{fill:url(#am);}.ay{fill:url(#an);}.az{fill:url(#ao);}.ba{fill:url(#ap);}.bb{fill:url(#aq);}.bc{fill:url(#ar);}.bd{fill:url(#as);}.be{fill:url(#at);}.bf{fill:url(#au);}.bg{fill:url(#av);}.bh{fill:url(#aw);}.bi{fill:url(#ax);}.bj{fill:url(#ay);}.bk{fill:url(#az);}.bl{fill:url(#ba);}.bm{fill:url(#bb);}.bn{fill:url(#bc);}.bo{fill:url(#bd);}.bp{fill:url(#be);}.bq{fill:url(#bf);}.br{fill:url(#bg);}.bs{fill:url(#bh);}.bt{fill:url(#bi);}.bu{fill:url(#bj);}.bv{fill:url(#bk);}</style><linearGradient id="a" x1="0.004" y1="0.498" x2="1.003" y2="0.498" gradientUnits="objectBoundingBox"><stop offset="0" stop-color="#e0713a"/><stop offset="0.985" stop-color="#de913a"/></linearGradient><linearGradient id="b" x1="-0.006" y1="0.503" x2="0.998" y2="0.503" xlink:href="#a"/><linearGradient id="d" x1="-0.001" y1="0.501" x2="1" y2="0.501" xlink:href="#a"/><linearGradient id="e" x1="0.003" y1="0.499" x2="1.003" y2="0.499" xlink:href="#a"/><linearGradient id="f" x1="0" y1="0.5" x2="1.001" y2="0.5" xlink:href="#a"/><linearGradient id="g" x1="-0.002" y1="0.501" x2="0.997" y2="0.501" xlink:href="#a"/><linearGradient id="h" x1="0" y1="0.5" x2="1" y2="0.5" xlink:href="#a"/><linearGradient id="i" x1="0" y1="0.498" x2="1" y2="0.498" xlink:href="#a"/><linearGradient id="j" x1="-0.001" y1="0.503" x2="0.999" y2="0.503" xlink:href="#a"/><linearGradient id="k" x1="0.001" y1="0.501" x2="0.997" y2="0.501" xlink:href="#a"/><linearGradient id="l" x1="0.001" y1="0.498" x2="1.001" y2="0.498" xlink:href="#a"/><linearGradient id="m" x1="0.004" y1="0.5" x2="1.002" y2="0.5" xlink:href="#a"/><linearGradient id="n" x1="-0.001" y1="0.502" x2="1.001" y2="0.502" xlink:href="#a"/><linearGradient id="o" x1="0.002" y1="0.5" x2="1" y2="0.5" xlink:href="#a"/><linearGradient id="p" x1="0.001" y1="0.501" x2="1" y2="0.501" xlink:href="#a"/><linearGradient id="q" x1="-0.011" y1="0.496" x2="0.981" y2="0.496" xlink:href="#a"/><linearGradient id="r" x1="-0.01" y1="0.501" x2="0.979" y2="0.501" xlink:href="#a"/><linearGradient id="s" x1="-0.002" y1="0.499" x2="1.011" y2="0.499" xlink:href="#a"/><linearGradient id="t" x1="-0.012" y1="0.497" x2="0.996" y2="0.497" xlink:href="#a"/><linearGradient id="u" x1="0" y1="0.5" x2="0.998" y2="0.5" xlink:href="#a"/><linearGradient id="v" x1="0" y1="0.501" x2="0.999" y2="0.501" xlink:href="#a"/><linearGradient id="w" x1="0.001" y1="0.505" x2="1" y2="0.505" xlink:href="#a"/><linearGradient id="x" x1="0.006" y1="0.504" x2="1" y2="0.504" xlink:href="#a"/><linearGradient id="y" x1="-0.011" y1="0.49" x2="0.993" y2="0.49" xlink:href="#a"/><linearGradient id="z" x1="0.018" y1="0.489" x2="1.008" y2="0.489" xlink:href="#a"/><linearGradient id="aa" x1="0.005" y1="0.499" x2="0.999" y2="0.499" xlink:href="#a"/><linearGradient id="ab" x1="-0.002" y1="0.499" x2="1" y2="0.499" xlink:href="#a"/><linearGradient id="ac" x1="-0.003" y1="0.505" x2="0.997" y2="0.505" xlink:href="#a"/><linearGradient id="ad" x1="0.003" y1="0.51" x2="1.003" y2="0.51" xlink:href="#a"/><linearGradient id="ae" x1="0.006" y1="0.47" x2="0.998" y2="0.47" xlink:href="#a"/><linearGradient id="af" x1="-0.001" y1="0.498" x2="1.002" y2="0.498" xlink:href="#a"/><linearGradient id="ag" x1="-0.002" y1="0.499" x2="0.99" y2="0.499" xlink:href="#a"/><linearGradient id="ah" x1="0.009" y1="0.495" x2="1" y2="0.495" xlink:href="#a"/><linearGradient id="ai" x1="-0.006" y1="0.496" x2="0.998" y2="0.496" xlink:href="#a"/><linearGradient id="aj" x1="-0.031" y1="0.498" x2="0.991" y2="0.498" xlink:href="#a"/><linearGradient id="ak" x1="-0.001" y1="0.501" x2="0.999" y2="0.501" xlink:href="#a"/><linearGradient id="al" x1="-0.01" y1="0.499" x2="0.997" y2="0.499" xlink:href="#a"/><linearGradient id="am" x1="-0.017" y1="0.495" x2="0.948" y2="0.495" xlink:href="#a"/><linearGradient id="an" x1="0.003" y1="0.498" x2="1" y2="0.498" xlink:href="#a"/><linearGradient id="ao" x1="0.009" y1="0.5" x2="1.003" y2="0.5" xlink:href="#a"/><linearGradient id="ap" x1="0" y1="0.499" x2="1" y2="0.499" xlink:href="#a"/><linearGradient id="aq" x1="-0.001" y1="0.499" x2="1" y2="0.499" xlink:href="#a"/><linearGradient id="ar" x1="0.003" y1="0.499" x2="1.002" y2="0.499" xlink:href="#a"/><linearGradient id="as" x1="-0.001" y1="0.503" x2="1" y2="0.503" xlink:href="#a"/><linearGradient id="at" x1="0" y1="0.499" x2="1" y2="0.499" xlink:href="#a"/><linearGradient id="au" x1="-0.001" y1="0.5" x2="1.002" y2="0.5" xlink:href="#a"/><linearGradient id="av" x1="-0.002" y1="0.5" x2="0.998" y2="0.5" xlink:href="#a"/><linearGradient id="aw" x1="0.002" y1="0.505" x2="1.003" y2="0.505" xlink:href="#a"/><linearGradient id="ax" x1="-0.004" y1="0.498" x2="1" y2="0.498" xlink:href="#a"/><linearGradient id="ay" x1="0" y1="0.499" x2="1" y2="0.499" xlink:href="#a"/><linearGradient id="az" x1="-0.001" y1="0.499" x2="0.999" y2="0.499" xlink:href="#a"/><linearGradient id="ba" x1="-0.001" y1="0.501" x2="1" y2="0.501" xlink:href="#a"/><linearGradient id="bb" x1="-0.001" y1="0.495" x2="0.997" y2="0.495" xlink:href="#a"/><linearGradient id="bc" x1="0.005" y1="0.505" x2="1.003" y2="0.505" xlink:href="#a"/><linearGradient id="bd" x1="0.002" y1="0.495" x2="1" y2="0.495" xlink:href="#a"/><linearGradient id="be" x1="-0.014" y1="0.508" x2="0.983" y2="0.508" xlink:href="#a"/><linearGradient id="bf" x1="-0.01" y1="0.503" x2="0.988" y2="0.503" xlink:href="#a"/><linearGradient id="bg" x1="0.016" y1="0.513" x2="1.014" y2="0.513" xlink:href="#a"/><linearGradient id="bh" x1="-0.004" y1="0.499" x2="0.998" y2="0.499" xlink:href="#a"/><linearGradient id="bi" x1="-0.001" y1="0.5" x2="1.001" y2="0.5" xlink:href="#a"/><linearGradient id="bj" x1="0.003" y1="0.5" x2="1" y2="0.5" xlink:href="#a"/><linearGradient id="bk" x1="-0.001" y1="0.5" x2="0.999" y2="0.5" xlink:href="#a"/></defs><g transform="translate(-35.3 -16.264)"><g transform="translate(35.3 16.264)"><g transform="translate(29.586 410.984)"><path class="a" d="M166.186,407.8c-3.165-3.323-7.911-4.589-12.184-6.171a65.208,65.208,0,0,1-29.747-100l-.633-3.323c-1.424-15.665-20.253-26.741-34.652-20.57s-19.3,27.532-9.019,39.4c-16.931,1.424-28.007,20.57-25.633,37.5,2.373,16.772,14.715,30.538,28.323,40.507a134.215,134.215,0,0,0,77.849,25.791c1.9,0,3.956,0,5.538-.949C169.826,417.456,169.193,411.127,166.186,407.8Z" transform="translate(-53.998 -276.002)"/></g><g transform="translate(555.229 425.956)"><path class="a" d="M443.163,334.1c3.956-6.329,4.43-14.715.475-21.045s-12.658-9.494-19.3-6.329c3.8-6.329,1.582-15.348-4.589-19.3-6.171-3.8-15.348-1.9-19.3,4.272-4.43,6.962-2.057,16.3,1.741,23.576s9.177,14.241,10.443,22.31c1.266,8.386-1.9,16.931-6.962,23.735s-11.709,12.184-18.2,17.405l-1.266,1.266a45.058,45.058,0,0,0,36.393-3.165c6.171-3.481,12.025-9.177,12.342-16.139.158-3.956-1.266-7.911-.633-11.867C435.093,343.275,440.156,339.161,443.163,334.1Z" transform="translate(-386.2 -285.464)"/></g><g transform="translate(164.401 682.517)"><path class="a" d="M246.638,498.387c-6.171-.791-12.342-3.481-15.981-8.544-2.373-3.165-3.481-7.12-5.38-10.6-2.057-3.481-5.538-6.488-9.494-6.171-6.171.633-10.285,9.019-16.139,7.6-3.639-.949-5.222-5.063-5.38-8.861,0-3.639,1.108-7.437.633-11.076-1.266-10.285-14.557-15.348-24.367-12.184s-24.842,15.19-31.33,23.26c6.8,11.234,20.57,15.665,33.387,18.829,21.361,5.38,42.88,9.969,64.716,13.608,5.063.949,10.285,1.74,15.348.949s10.127-3.481,12.5-8.07C259.138,498.229,252.809,499.178,246.638,498.387Z" transform="translate(-139.2 -447.609)"/></g><g transform="translate(401.113 596.549)"><path class="a" d="M404.624,450.592c-1.582-8.861-10.285-16.614-18.988-14.557,7.279-6.013,7.279-17.88,1.582-25.317s-15.665-10.6-25-10.285-18.355,3.639-27.057,7.12c4.272-5.38-1.9-13.924-8.861-14.241-6.8-.475-12.975,3.956-18.671,7.911-5.538,4.114-12.025,8.228-18.829,7.12l6.329,2.532c15.19,2.373,30.7,5.855,43.83,13.924,13.291,7.911,24.051,21.045,26.424,36.235,2.215,15.348-5.7,32.437-20.253,37.659a61.316,61.316,0,0,0,51.425-23.26C402.093,468.472,406.207,459.453,404.624,450.592Z" transform="translate(-288.8 -393.278)"/></g><g transform="translate(0 396.265)"><g transform="translate(14.715)"><ellipse class="a" cx="0.475" cy="14.715" rx="0.475" ry="14.715"/></g><g transform="translate(0 14.241)"><ellipse class="a" cx="15.19" cy="0.475" rx="15.19" ry="0.475"/></g></g><g transform="translate(587.824 547.849)"><g transform="translate(14.715)"><ellipse class="a" cx="0.475" cy="14.715" rx="0.475" ry="14.715"/></g><g transform="translate(0 14.241)"><ellipse class="a" cx="15.19" cy="0.475" rx="15.19" ry="0.475"/></g></g><g transform="translate(498.424 41.988)"><g transform="translate(14.715)"><ellipse class="a" cx="0.475" cy="14.715" rx="0.475" ry="14.715"/></g><g transform="translate(0 14.241)"><ellipse class="a" cx="15.19" cy="0.475" rx="15.19" ry="0.475"/></g></g><g transform="translate(23.102 278.225)"><circle class="a" cx="9.019" cy="9.019" r="9.019"/></g><g transform="translate(373.581 661.775)"><circle class="a" cx="9.019" cy="9.019" r="9.019"/></g><g transform="translate(457.285 491.677)"><circle class="a" cx="9.019" cy="9.019" r="9.019"/></g><g transform="translate(189.718 43.254)"><circle class="a" cx="9.019" cy="9.019" r="9.019"/></g><g transform="translate(241.459 580.603)"><circle class="a" cx="4.43" cy="4.43" r="4.43"/></g><g transform="translate(132.913 558.134)"><circle class="a" cx="4.43" cy="4.43" r="4.43"/></g><g transform="translate(243.832 56.861)"><circle class="a" cx="4.43" cy="4.43" r="4.43"/></g><g transform="translate(442.253 300.377)"><circle class="a" cx="4.43" cy="4.43" r="4.43"/></g><g transform="translate(15.215 46.593)"><path class="b" d="M48.372,46.96S38.4,52.181,52.327,73.068c14.082,21.045,23.26,31.171,23.26,31.171s2.69,4.905-1.582,6.329c-4.272,1.266-14.082.949-15.348,6.487-1.424,5.855,3.323,10.6,12.025,14.082,8.7,3.639,27.532,12.184,29.114,12.975,1.741.791,3.481,3.006.791,4.43s-24.209,6.171-21.2,16.139c2.848,9.969,28.8,16.139,31.646,16.772,2.848.791,3.639,1.741,3.481,3.323,0,1.582-7.437,2.373-13.45,4.114-6.013,1.582-12.658,4.589-10.6,10.127,2.215,5.7,18.355,16.139,54.431,15.348l16.772-1.424,7.437-15.19c13.924-33.387,9.968-52.216,5.538-56.33s-9.652,1.108-13.291,6.171-7.279,11.551-8.7,10.918c-1.424-.475-2.057-1.582-1.741-4.589.316-2.848,4.114-29.273-4.114-35.6s-20.57,11.867-22.785,13.924-3.639-.475-3.8-2.215c-.158-1.582-1.266-22.31-1.424-31.646-.158-9.494-2.848-15.507-8.861-16.3-5.7-.791-8.861,8.386-11.709,12.025-2.848,3.481-6.487-.791-6.487-.791s-6.013-12.342-20.57-33.07C56.916,39.365,48.214,47.118,48.214,47.118" transform="translate(-44.916 -45.71)"/><g transform="translate(16.114 19.921)"><path class="a" d="M157.158,209.568c-10.6-15.348-28.8-42.722-44.621-66.3C96.714,119.851,82.474,98.49,71.872,83.142c-5.222-7.6-9.494-13.766-12.342-18.2-1.424-2.057-2.532-3.8-3.323-4.905-.316-.633-.633-.949-.791-1.266A1.958,1.958,0,0,0,55.1,58.3a1.958,1.958,0,0,1,.316.475,5.187,5.187,0,0,0,.949,1.266c.791,1.108,1.9,2.848,3.481,4.905,3.006,4.272,7.279,10.443,12.5,18.038,10.6,15.348,24.842,36.551,40.665,59.969,15.823,23.576,34.019,50.95,44.463,66.3" transform="translate(-55.1 -58.3)"/></g><g transform="translate(27.507 72.453)"><path class="a" d="M62.3,91.5a7.169,7.169,0,0,1,1.266.158c.791.158,1.9.475,3.165.791,2.69.633,6.487,1.582,10.6,2.848,3.956,1.108,7.753,2.215,10.443,3.006a26.418,26.418,0,0,1,3.165.949,4.945,4.945,0,0,1,1.108.316,7.169,7.169,0,0,1-1.266-.158c-.791-.158-1.9-.475-3.165-.791-2.69-.633-6.487-1.741-10.443-2.848-4.114-1.108-7.753-2.215-10.443-3.006a26.419,26.419,0,0,1-3.165-.949A5.172,5.172,0,0,1,62.3,91.5Z" transform="translate(-62.3 -91.5)"/></g><g transform="translate(57.841 44.675)"><g transform="translate(0 0)"><ellipse class="a" cx="17.722" cy="0.316" rx="17.722" ry="0.316" transform="matrix(-0.228, 0.974, -0.974, -0.228, 8.697, 0.144)"/></g></g><g transform="translate(80.83 88.434)"><path class="a" d="M96,129.607a4.379,4.379,0,0,1,.633-1.108c.475-.791.949-1.741,1.582-3.006,1.424-2.532,3.323-5.854,5.222-9.81,2.057-3.8,3.639-7.437,4.905-9.968.633-1.266,1.108-2.215,1.424-3.006s.475-1.108.633-1.108c0,0-.158.475-.316,1.108-.316.791-.633,1.741-1.266,3.165-1.108,2.69-2.69,6.171-4.747,10.127-1.9,3.8-3.956,7.279-5.38,9.652-.791,1.266-1.424,2.215-1.741,2.848C96.316,129.29,96,129.607,96,129.607Z" transform="translate(-96 -101.6)"/></g><g transform="translate(51.716 115.966)"><path class="a" d="M77.6,119.475a5.058,5.058,0,0,0,1.108-.158,24.616,24.616,0,0,0,3.165-.158c2.69,0,6.329-.158,10.285-.158h13.45c.791,0,1.108,0,1.108.158a5.058,5.058,0,0,0-1.108.158,24.615,24.615,0,0,0-3.165.158c-2.69,0-6.329.158-10.285.158H78.708A6.62,6.62,0,0,0,77.6,119.475Z" transform="translate(-77.6 -119)"/></g><g transform="translate(67.539 150.935)"><g transform="translate(0 0)"><path class="a" d="M87.6,141.891a4.967,4.967,0,0,1,1.424-.158c1.108,0,2.373-.158,3.956-.158,3.323-.158,8.07-.316,13.133-.316,5.222-.158,9.81-.158,13.133-.158h5.38a4.967,4.967,0,0,1-1.424.158c-1.108,0-2.373.158-3.956.158-3.323.158-8.07.316-13.133.316-5.063.158-9.81.158-13.133.158H89.024Q87.6,142.128,87.6,141.891Z" transform="translate(-87.6 -141.1)"/></g></g><g transform="translate(103.774 114.7)"><path class="a" d="M110.5,154.276a12.436,12.436,0,0,1,.633-1.424l1.9-3.8c1.582-3.165,3.956-7.6,6.329-12.658,2.373-4.905,4.43-9.494,5.854-12.817.633-1.582,1.266-2.848,1.741-3.956a12.437,12.437,0,0,0,.633-1.424l-.475,1.424c-.316.949-.949,2.373-1.582,3.956-1.424,3.323-3.323,7.912-5.7,12.975-2.373,4.905-4.747,9.336-6.487,12.5-.949,1.582-1.582,2.848-2.057,3.8C110.975,153.8,110.658,154.276,110.5,154.276Z" transform="translate(-110.5 -118.2)"/></g></g><g transform="translate(544.432 223.452)"><path class="c" d="M396.977,283.3c-17.88-15.507-19.462-40.982-16.3-63.45.475-3.8.475-7.753,2.69-10.918s6.487-4.905,9.81-3.006c2.69,1.582,3.481,5.063,4.747,7.912a21.673,21.673,0,0,0,7.911,9.336c2.215,1.424,5.063,2.532,7.6,1.582,3.481-1.424,4.272-5.854,4.747-9.652.633-6.962,1.424-13.924,2.057-20.886.316-3.8.791-7.6,2.373-10.918,1.582-3.481,4.43-6.487,8.07-7.12s7.753,1.9,8.228,5.7c.158,1.582-.317,3.165-.317,4.589,0,1.582.475,3.323,1.9,3.956s3.006-.316,4.272-1.266c4.272-3.323,7.437-7.912,10.285-12.5,3.006-4.589,5.855-9.177,9.81-12.975s9.177-6.487,14.557-6.171,10.76,4.114,11.551,9.652c.791,5.38-2.848,10.443-6.646,14.241a85.793,85.793,0,0,1-19.146,14.715c-1.266.633-2.69,1.424-3.165,2.848-1.108,2.373.949,5.063,3.323,6.171,2.69,1.266,5.7,1.266,8.544,1.9s5.855,2.215,6.646,5.222c1.108,3.956-2.532,7.6-5.855,9.968a73.4,73.4,0,0,1-22.469,9.969c-2.848.633-5.855,1.266-8.228,3.006s-4.114,4.905-3.006,7.753,4.43,3.956,7.279,3.8c3.006-.158,5.7-1.582,8.544-2.215,5.38-1.424,11.867-.316,14.715,4.43,1.9,3.165,1.582,7.279.158,10.6a24.985,24.985,0,0,1-6.646,8.544c-9.336,8.7-20.57,15.348-32.912,18.2-12.658,2.69-23.734,2.532-35.127-3.006" transform="translate(-379.376 -157.484)"/><g transform="translate(24.88 3.665)"><path class="a" d="M395.1,268.5a367,367,0,0,1,17.089-34.652c1.741-3.006,3.323-5.854,4.905-8.861,1.582-2.848,3.323-5.7,5.063-8.544a160.581,160.581,0,0,1,11.076-15.032q5.7-6.883,10.918-12.817c3.481-3.956,6.8-7.6,9.969-10.6a135.216,135.216,0,0,1,16.139-13.766q3.085-2.136,4.747-3.323a14.606,14.606,0,0,1,1.266-.791,1.957,1.957,0,0,0,.475-.316,1.958,1.958,0,0,1-.475.316c-.316.158-.633.475-1.266.791-1.108.791-2.69,1.9-4.589,3.323a137.848,137.848,0,0,0-15.981,13.924c-3.165,3.165-6.487,6.8-9.968,10.76s-7.12,8.228-10.918,12.817a167.725,167.725,0,0,0-10.918,15.032c-1.741,2.69-3.323,5.538-5.063,8.386-1.582,2.848-3.323,5.855-4.905,8.861A368.475,368.475,0,0,0,395.417,268.5" transform="translate(-395.1 -159.8)"/></g><g transform="translate(51.234 19.013)"><path class="a" d="M412.775,210.956a7.176,7.176,0,0,1-.158-1.582,34.568,34.568,0,0,1-.158-4.43c-.158-3.8-.158-9.019-.158-14.715s0-10.918-.158-14.715c-.158-1.9-.158-3.481-.317-4.43,0-1.108-.158-1.582,0-1.582,0,0,.158.633.317,1.582.158,1.108.316,2.532.475,4.43.316,3.8.475,9.019.475,14.715s0,10.76-.158,14.715v4.43A7.174,7.174,0,0,1,412.775,210.956Z" transform="translate(-411.755 -169.5)"/></g><g transform="translate(52.412 56.138)"><path class="a" d="M461.393,193.5h-7.12c-4.43,0-10.6.158-17.405.791-6.8.475-12.817,1.266-17.247,1.9-2.215.316-3.956.633-5.222.791a17.908,17.908,0,0,0-1.9.316l1.9-.475c1.266-.316,3.006-.633,5.222-1.108,4.43-.791,10.443-1.582,17.247-2.215,6.8-.475,12.975-.633,17.405-.475a41.637,41.637,0,0,1,5.222.316C460.6,193.338,461.393,193.338,461.393,193.5Z" transform="translate(-412.5 -192.963)"/></g><g transform="translate(8.265 47.652)"><path class="a" d="M402.005,251.525a1.732,1.732,0,0,1-.316-.633c-.158-.475-.317-1.108-.633-1.9-.475-1.582-1.266-3.956-2.057-6.8-1.741-5.7-3.8-13.766-6.013-22.627s-4.272-16.931-5.855-22.627c-.791-2.848-1.424-5.063-1.9-6.8a16.42,16.42,0,0,0-.475-1.9,2.5,2.5,0,0,1-.158-.633,1.732,1.732,0,0,1,.316.633c.158.475.316,1.108.633,1.9.475,1.582,1.266,3.956,2.057,6.8,1.741,5.7,3.8,13.766,6.013,22.627s4.272,16.931,5.855,22.627c.791,2.848,1.424,5.063,1.9,6.8a16.418,16.418,0,0,0,.475,1.9C401.847,251.208,402.005,251.367,402.005,251.525Z" transform="translate(-384.6 -187.6)"/></g><g transform="translate(25.829 97.811)"><path class="a" d="M461.524,219.3a.925.925,0,0,1-.633.158,16.417,16.417,0,0,1-1.9.475c-1.741.316-4.114.949-7.12,1.424-6.013,1.266-14.241,3.006-23.26,5.063s-17.405,3.8-23.26,4.905c-3.006.633-5.38.949-7.12,1.266-.791.158-1.424.158-1.9.316H395.7a.925.925,0,0,1,.633-.158,16.418,16.418,0,0,1,1.9-.475q2.611-.475,7.12-1.424c6.013-1.266,14.241-3.006,23.26-5.063s17.405-3.8,23.26-4.905c3.006-.633,5.38-.949,7.12-1.266.791-.158,1.424-.158,1.9-.316Z" transform="translate(-395.7 -219.3)"/></g></g><g transform="translate(424.531)"><path class="a" d="M303.6,98.126c2.848-16.456,10.76-40.507,20.1-54.431,9.336-13.766,23.893-24.842,40.507-27.057s34.811,5.538,42.247,20.412c3.956,8.07,4.747,17.247,7.6,25.791s9.336,16.931,18.2,17.564c7.911.633,15.507-5.063,23.26-3.639,10.127,1.9,14.082,14.557,14.082,24.842s-1.424,21.836,4.905,29.905c5.222,6.646,14.082,9.019,21.2,13.45,15.507,9.652,22.152,29.747,20.57,47.944s-9.968,35.127-18.829,51.108a396.5,396.5,0,0,0-30.222-75.792c-7.12-13.766-20.412-25.475-31.962-35.918-17.88-15.823-57.121-23.418-80.7-26.266-23.26-2.848-27.374-3.481-50.95-7.911" transform="translate(-303.6 -16.264)"/></g></g><g transform="translate(132.137 115.204)"><g transform="translate(0 2.385)"><path class="d" d="M266.123,80.3c-58.7,4.272-122.786,12.025-169.623,30.064l14.874,100.318s90.982-32.6,165.034-30.38Z" transform="translate(-96.5 -80.3)"/><g class="e"><path class="f" d="M266.123,80.3c-58.7,4.272-122.786,12.025-169.623,30.064l14.874,100.318s90.982-32.6,165.034-30.38Z" transform="translate(-96.5 -80.3)"/></g><g transform="translate(14.399 35.602)"><path class="d" d="M256.551,154.067a2.494,2.494,0,0,0-.633.158c-.475,0-.949.158-1.741.158-1.582.158-3.639.475-6.329.791-2.848.316-6.171.791-10.127,1.266-3.956.633-8.386,1.108-13.45,1.9a757.914,757.914,0,0,0-76.583,15.823c-10.285,2.69-20.253,5.38-29.273,8.228l-.475.158v-.475c-3.165-22.943-6.171-42.88-8.544-56.963-1.266-6.962-2.215-12.658-2.848-16.456-.316-1.9-.633-3.323-.791-4.43,0-.475-.158-.791-.158-1.108V102.8a.49.49,0,0,0,.158.316,4.025,4.025,0,0,0,.316,1.108c.158,1.108.475,2.532.949,4.43.791,3.8,1.741,9.336,3.006,16.456,2.532,14.082,5.7,33.861,8.861,56.963l-.475-.316c9.177-2.848,18.988-5.7,29.273-8.228a746.808,746.808,0,0,1,76.742-15.507c4.905-.791,9.494-1.266,13.45-1.9,3.956-.475,7.279-.949,10.127-1.108,2.69-.316,4.905-.475,6.487-.633.633,0,1.266-.158,1.741-.158A.49.49,0,0,1,256.551,154.067Z" transform="translate(-105.6 -102.8)"/></g><g transform="translate(20.728 45.762)"><path class="d" d="M256.279,125.96s-.158-.633-.633-2.057a21.015,21.015,0,0,0-3.006-5.222,25.63,25.63,0,0,0-7.12-6.171c-.791-.475-1.741-.949-2.532-1.424-.949-.316-1.9-.791-2.848-1.108a14.928,14.928,0,0,0-6.487-.633,14.114,14.114,0,0,0-6.646,2.69,21.4,21.4,0,0,0-5.38,5.855c-3.165,4.589-5.063,10.127-7.437,15.981-1.266,2.848-2.848,5.854-5.538,7.911A9.59,9.59,0,0,1,204.063,144a9.959,9.959,0,0,1-5.222-.633c-6.646-2.69-9.652-10.285-16.456-12.658a13.555,13.555,0,0,0-9.968.791,12.494,12.494,0,0,0-3.956,3.006,19.546,19.546,0,0,0-2.69,4.272c-1.582,3.006-2.69,6.329-5.222,8.544a8.147,8.147,0,0,1-4.589,2.057,9.475,9.475,0,0,1-4.747-.949,16,16,0,0,1-6.487-6.487c-1.582-2.532-2.373-5.38-3.481-7.911a33.083,33.083,0,0,0-3.481-7.12A15.409,15.409,0,0,0,132.543,122a13.449,13.449,0,0,0-12.025-.316,18.223,18.223,0,0,0-7.6,5.538,13.3,13.3,0,0,0-2.848,5.222,6.51,6.51,0,0,0-.475,2.057,9.406,9.406,0,0,1,.316-2.057,13.685,13.685,0,0,1,2.848-5.38,19.038,19.038,0,0,1,7.753-5.7,13.95,13.95,0,0,1,12.5.316,14.139,14.139,0,0,1,5.538,5.063,38.523,38.523,0,0,1,3.481,7.279,83.434,83.434,0,0,0,3.481,7.753,18.2,18.2,0,0,0,6.329,6.171,8.066,8.066,0,0,0,4.272.949,6.649,6.649,0,0,0,4.114-1.9c2.373-2.057,3.481-5.38,5.063-8.386a25.461,25.461,0,0,1,2.69-4.43,11.158,11.158,0,0,1,4.272-3.323,13.691,13.691,0,0,1,10.6-.791c3.639,1.108,6.171,3.956,8.544,6.487s4.747,5.063,7.912,6.329a9.892,9.892,0,0,0,4.747.633,10.725,10.725,0,0,0,4.272-2.057c2.532-1.9,4.114-4.747,5.38-7.6,2.373-5.7,4.43-11.393,7.6-15.981a19.662,19.662,0,0,1,5.538-5.854,14.58,14.58,0,0,1,6.962-2.69,16.143,16.143,0,0,1,6.8.633,27.018,27.018,0,0,1,2.848,1.108,13.089,13.089,0,0,1,2.532,1.424,26.2,26.2,0,0,1,7.12,6.487,14.874,14.874,0,0,1,2.848,5.38c.158.633.316,1.108.475,1.582C256.279,125.8,256.279,125.96,256.279,125.96Z" transform="translate(-109.6 -109.222)"/></g><g transform="translate(8.341 48.911)"><g transform="translate(0 0)"><ellipse class="d" cx="1.741" cy="0.475" rx="1.741" ry="0.475" transform="translate(0 0.651) rotate(-10.777)"/></g></g><g transform="translate(11.523 67.22)"><g transform="translate(0 0)"><ellipse class="d" cx="1.582" cy="0.475" rx="1.582" ry="0.475" transform="matrix(0.907, -0.422, 0.422, 0.907, 0, 1.335)"/></g></g><g transform="translate(14.642 87.164)"><g transform="translate(0 0)"><ellipse class="d" cx="1.582" cy="0.475" rx="1.582" ry="0.475" transform="matrix(0.944, -0.33, 0.33, 0.944, 0, 1.043)"/></g></g><g transform="translate(18.306 106.912)"><g transform="translate(0 0)"><ellipse class="d" cx="1.741" cy="0.475" rx="1.741" ry="0.475" transform="translate(0 1.043) rotate(-17.44)"/></g></g><g transform="translate(132.28 9.019)"><path class="d" d="M180.1,89.8a6.4,6.4,0,0,1,1.9-.475c1.266-.158,3.165-.475,5.38-.791,4.747-.633,11.393-1.582,19.462-2.532h.316v.316c.633,6.8,1.266,14.557,2.057,22.785v.791H208.9c-9.652,1.108-18.671,2.215-26.266,3.165h-.316v-.316c-.791-6.8-1.424-12.658-1.741-16.772-.158-1.9-.316-3.481-.475-4.589,0-1.108,0-1.741,0-1.582,0,0,.158.633.316,1.741s.316,2.69.633,4.589c.475,4.114,1.266,9.81,2.057,16.614l-.316-.316c7.6-.949,16.614-2.057,26.266-3.323l-.316.475v-.316c-.791-8.228-1.424-15.981-2.057-22.785l.475.316C191.967,88.373,183.106,89.323,180.1,89.8Z" transform="translate(-180.1 -86)"/><g transform="translate(4.43 7.388)"><path class="d" d="M202.837,91.034c0,.316-4.589.316-9.969.791-5.538.633-9.968,1.582-9.968,1.266a33.9,33.9,0,0,1,9.81-2.057C198.248,90.4,202.837,90.718,202.837,91.034Z" transform="translate(-182.9 -90.669)"/></g><g transform="translate(6.013 13.387)"><path class="d" d="M202.571,94.681c0,.316-4.272.475-9.336.949-5.222.475-9.336,1.108-9.336.949a38.887,38.887,0,0,1,9.336-1.741C198.3,94.206,202.571,94.523,202.571,94.681Z" transform="translate(-183.9 -94.461)"/></g><g transform="translate(7.588 18.334)"><g transform="translate(0 0)"><ellipse class="d" cx="5.38" cy="0.475" rx="5.38" ry="0.475" transform="matrix(0.992, -0.126, 0.126, 0.992, 0, 1.352)"/></g></g></g></g><g transform="translate(274.687)"><g transform="translate(0)"><path class="d" d="M450.957,110.767C393.519,93.2,345.1,78.329,280.069,78.8L270.1,181.021c67.564,6.013,90.191,10.443,152.534,32.912Z" transform="translate(-270.1 -78.793)"/><g class="e"><path class="f" d="M450.957,110.767C393.519,93.2,345.1,78.329,280.069,78.8L270.1,181.021c67.564,6.013,90.191,10.443,152.534,32.912Z" transform="translate(-270.1 -78.793)"/></g></g><g transform="translate(24.684 27.732)"><path class="g" d="M311.808,118.124l2.532-21.678a25.986,25.986,0,0,0-17.722,4.905A26.726,26.726,0,0,0,285.7,122.871a21.2,21.2,0,0,0,.158,3.165h0l25.317-2.848Z" transform="translate(-285.7 -96.32)"/><g transform="translate(28.481 0.444)"><path class="h" d="M327.593,114.322c-2.532-8.07-8.544-15.032-18.038-17.247-.316,0-.475-.158-.791-.158a.581.581,0,0,1-.475-.158,4.38,4.38,0,0,0-1.424-.158h0l-2.532,21.678-.633,5.063,23.893,8.7h0a31.348,31.348,0,0,0,1.266-5.538A32.072,32.072,0,0,0,327.593,114.322Z" transform="translate(-303.7 -96.6)"/></g><g class="i" transform="translate(28.481 0.444)"><path class="h" d="M327.593,114.322c-2.532-8.07-8.544-15.032-18.038-17.247-.316,0-.475-.158-.791-.158a.581.581,0,0,1-.475-.158,4.38,4.38,0,0,0-1.424-.158h0l-2.532,21.678-.633,5.063,23.893,8.7h0a31.348,31.348,0,0,0,1.266-5.538A32.072,32.072,0,0,0,327.593,114.322Z" transform="translate(-303.7 -96.6)"/></g><g transform="translate(1.266 29.716)"><path class="j" d="M311.817,115.1,286.5,117.948c1.108,12.342,9.969,22.469,21.994,23.893s23.26-6.329,27.216-18.038l-23.893-8.7" transform="translate(-286.5 -115.1)"/></g></g><g transform="translate(100.16 34.663)"><path class="d" d="M391.945,117.472s-.791-.316-2.215-.949-3.481-1.582-6.013-2.532a155.986,155.986,0,0,0-20.412-7.12,192.7,192.7,0,0,0-21.045-4.747c-2.69-.475-4.905-.791-6.487-.949s-2.373-.316-2.373-.475c0,0,.791,0,2.373.158s3.8.316,6.487.633a150.458,150.458,0,0,1,21.2,4.43,143.887,143.887,0,0,1,20.412,7.437,51.409,51.409,0,0,1,5.855,2.848C391.154,117,391.945,117.314,391.945,117.472Z" transform="translate(-333.4 -100.7)"/></g><g transform="translate(98.419 45.265)"><path class="d" d="M390.845,124.172s-.791-.316-2.215-.949-3.481-1.582-6.013-2.532a155.979,155.979,0,0,0-20.412-7.12,192.7,192.7,0,0,0-21.045-4.747c-2.69-.475-4.905-.791-6.487-.949s-2.373-.316-2.373-.475c0,0,.791,0,2.373.158s3.8.316,6.487.633a150.46,150.46,0,0,1,21.2,4.43,143.89,143.89,0,0,1,20.412,7.437,51.409,51.409,0,0,1,5.855,2.848C390.054,123.7,390.845,124.172,390.845,124.172Z" transform="translate(-332.3 -107.4)"/></g><g transform="translate(96.679 56.024)"><path class="d" d="M389.745,130.972s-.791-.316-2.215-.949-3.481-1.582-6.013-2.532a155.979,155.979,0,0,0-20.412-7.12,192.706,192.706,0,0,0-21.045-4.747c-2.69-.475-4.905-.791-6.488-.949s-2.373-.316-2.373-.475c0,0,.791,0,2.373.158s3.8.316,6.488.633a150.462,150.462,0,0,1,21.2,4.43,143.887,143.887,0,0,1,20.412,7.437,51.4,51.4,0,0,1,5.855,2.848C388.954,130.5,389.745,130.814,389.745,130.972Z" transform="translate(-331.2 -114.2)"/></g><g transform="translate(94.622 66.626)"><path class="d" d="M387.021,137.672s-.791-.316-2.215-.949-3.323-1.582-5.855-2.532a143.374,143.374,0,0,0-19.779-7.12,179.911,179.911,0,0,0-20.57-4.747c-2.69-.475-4.747-.791-6.329-.949-1.424-.158-2.373-.316-2.373-.475,0,0,.791,0,2.373.158s3.639.316,6.329.633a170.279,170.279,0,0,1,20.57,4.43,139.469,139.469,0,0,1,19.779,7.437,62.6,62.6,0,0,1,5.7,2.848A14.331,14.331,0,0,1,387.021,137.672Z" transform="translate(-329.9 -120.9)"/></g><g transform="translate(93.039 77.386)"><path class="d" d="M380.008,142.257a7.062,7.062,0,0,1-1.9-.791q-2.136-.949-5.222-2.373a151.506,151.506,0,0,0-17.722-6.487,124.318,124.318,0,0,0-18.513-3.8c-2.215-.316-4.114-.633-5.7-.791-1.266-.158-2.057-.316-2.057-.316h2.057c1.424,0,3.323.316,5.7.475a130.662,130.662,0,0,1,18.671,3.639,123.548,123.548,0,0,1,17.722,6.8c2.215,1.108,3.956,1.9,5.063,2.532A13.6,13.6,0,0,1,380.008,142.257Z" transform="translate(-328.9 -127.7)"/></g><g transform="translate(90.666 87.921)"><path class="d" d="M355.407,139.646c0,.158-1.582-.316-4.114-.791-2.532-.633-6.013-1.266-9.81-2.057-3.8-.633-7.437-1.108-9.968-1.582-2.532-.316-4.114-.633-4.114-.791s1.582,0,4.114.158,6.171.633,9.968,1.266a95.523,95.523,0,0,1,9.81,2.215C353.983,138.855,355.407,139.488,355.407,139.646Z" transform="translate(-327.4 -134.359)"/></g><g transform="translate(10.601 11.816)"><path class="d" d="M286.136,86.481H287.4c.949,0,2.215,0,3.956-.158,3.481-.158,8.544,0,15.032.316a230.292,230.292,0,0,1,52.691,9.494l.316.158v.316c-3.956,22.627-8.7,49.684-13.766,78.482-.158,1.108-.475,2.373-.633,3.481v.475l-.475-.158a347.7,347.7,0,0,0-35.127-7.279c-11.393-1.741-22.152-3.006-32.279-3.639H276.8v-.316c2.848-24.209,5.063-44.463,6.646-58.7.791-7.12,1.424-12.658,1.9-16.456.158-1.9.475-3.323.475-4.272,0-.475.158-.791.158-1.108l.158-.633v.475a3.089,3.089,0,0,1-.158,1.108c-.158,1.108-.316,2.532-.475,4.43-.475,3.8-.949,9.494-1.74,16.614-1.582,14.241-3.8,34.494-6.329,58.545l-.316-.475c10.127.633,20.886,1.9,32.279,3.481a341.662,341.662,0,0,1,35.285,7.279l-.475.316c.158-1.108.475-2.373.633-3.481,5.063-28.8,9.81-55.7,13.766-78.482l.158.316a238.565,238.565,0,0,0-52.532-9.652c-6.487-.475-11.551-.475-14.874-.475h-5.222Z" transform="translate(-276.8 -86.261)"/></g></g></g><g transform="translate(170.889 72.994)"><g transform="translate(190.998 239.376)"><path class="d" d="M243.757,227.135l56.013,12.5,8.7-12.5-1.424-15.981L298.5,203.4H269.232L241.7,228.084" transform="translate(-241.7 -203.4)"/></g><g class="i" transform="translate(190.998 239.376)"><path d="M243.757,227.135l56.013,12.5,8.7-12.5-1.424-15.981L298.5,203.4H269.232L241.7,228.084" transform="translate(-241.7 -203.4)"/></g><g transform="translate(263.755 128.252)"><path class="k" d="M302.426,152.679l70.729-9.494,11.076-3.165s25.475-5.538,27.849-6.487c2.69-.949,3.956.158,4.114,1.108.475,1.582-1.108,3.481-3.481,4.272-.791.316-13.766,4.747-13.766,4.747a25.509,25.509,0,0,1,4.43,1.266c3.165,1.108,6.013,5.063,7.6,9.652,1.424,4.589,1.424,6.013-.316,6.8a2.343,2.343,0,0,1-2.057-.316,4.979,4.979,0,0,1-2.057-2.69c-2.532-7.437-7.12-8.07-7.12-8.07l-1.424.475s4.747,3.323,4.747,7.437a5.688,5.688,0,0,1-.316,1.741,6.452,6.452,0,0,1-.949,5.854,6.339,6.339,0,0,1-5.855,2.215,2.587,2.587,0,0,1-2.215-1.741,5.622,5.622,0,0,1,.316-1.582c.158-.316.158-.475.316-.791l-4.272.633s-9.652.791-13.766,1.582l-66.14,19.937a17.328,17.328,0,0,1-21.519-11.709h0A17.154,17.154,0,0,1,302.426,152.679Z" transform="translate(-287.682 -133.171)"/><g transform="translate(87.038 8.116)"><g transform="translate(0.018 0)"><path class="k" d="M342.7,142.1a3.725,3.725,0,0,0,3.006,2.848,41.689,41.689,0,0,0,4.43.316c4.43.633,7.753,4.589,12.184,4.905.633,0,1.424,0,1.582-.633.158-.475-.317-1.108-.791-1.424-3.639-3.323-7.279-6.487-11.076-9.81" transform="translate(-342.7 -138.3)"/></g><path class="l" d="M352.358,138.3s.475.316,1.266.949,1.9,1.582,3.323,2.848,3.165,2.69,4.905,4.272c.475.475.949.791,1.424,1.266s1.108.791,1.266,1.741a1.19,1.19,0,0,1-.791,1.108,3.484,3.484,0,0,1-1.266.158,4.38,4.38,0,0,1-2.057-.475c-2.848-.949-4.905-2.532-7.12-3.639a12.594,12.594,0,0,0-3.165-1.108,19.15,19.15,0,0,0-3.006-.158c-1.9,0-3.481-.791-3.956-1.741a2.16,2.16,0,0,1-.475-1.582c.158,0,0,.633.791,1.266a4.978,4.978,0,0,0,3.8,1.424,20.173,20.173,0,0,1,3.006.158,9.157,9.157,0,0,1,3.323,1.108c2.215.949,4.43,2.69,6.962,3.481a7.942,7.942,0,0,0,1.9.316c.633,0,1.108-.158,1.108-.475s-.475-.791-.949-1.266-.949-.791-1.424-1.266q-2.611-2.373-4.747-4.272c-1.424-1.266-2.373-2.215-3.165-3.006A8.173,8.173,0,0,1,352.358,138.3Z" transform="translate(-342.689 -138.3)"/></g><g transform="translate(110.275 17.223)"><path class="l" d="M357.415,144.6a6.84,6.84,0,0,1,2.848,0,4.057,4.057,0,0,1,2.373,1.741,11.054,11.054,0,0,1,1.741,3.323,17.742,17.742,0,0,0,1.582,3.481,6.344,6.344,0,0,0,2.373,2.215,2.2,2.2,0,0,0,2.215,0,4.686,4.686,0,0,0,.633-.475l-.633.316a2.743,2.743,0,0,1-1.9-.158,5.633,5.633,0,0,1-2.057-2.215,17.742,17.742,0,0,1-1.582-3.481,12.28,12.28,0,0,0-1.9-3.481,4.681,4.681,0,0,0-2.69-1.741,10.1,10.1,0,0,0-2.215,0C357.573,144.442,357.257,144.6,357.415,144.6Z" transform="translate(-357.375 -144.056)"/></g><g transform="translate(108.733 5.584)"><path class="l" d="M373.805,136.7s-.949.316-2.532.949c-1.741.633-3.8,1.424-6.171,2.215s-4.43,1.582-6.171,2.215a17.382,17.382,0,0,0-2.532.949,20.453,20.453,0,0,0,2.69-.633c1.582-.475,3.8-1.108,6.171-2.057,2.373-.791,4.589-1.741,6.171-2.373C372.856,137.175,373.805,136.7,373.805,136.7Z" transform="translate(-356.4 -136.7)"/></g><g transform="translate(104.929 21.724)"><path class="l" d="M357.483,146.9a1.9,1.9,0,0,0,.633.633,2.371,2.371,0,0,1,.791,1.9c0,.475-.316.791-.791,1.108a5.608,5.608,0,0,1-1.741.475,3.124,3.124,0,0,0-1.9.949,2.524,2.524,0,0,0-.316,2.373,3.43,3.43,0,0,0,1.582,1.741,3.164,3.164,0,0,0,2.057.316,16.187,16.187,0,0,0,3.323-1.266,4.894,4.894,0,0,0,1.9-1.424,8.224,8.224,0,0,0,.475-.791,1.9,1.9,0,0,1-.633.633,12.886,12.886,0,0,1-1.9,1.266,12.2,12.2,0,0,1-3.165,1.108,3.089,3.089,0,0,1-3.165-1.741,2.575,2.575,0,0,1,.158-1.9,2.528,2.528,0,0,1,1.582-.791,5.668,5.668,0,0,0,1.741-.633,1.521,1.521,0,0,0,.949-1.424,2.992,2.992,0,0,0-1.108-2.215A1.958,1.958,0,0,1,357.483,146.9Z" transform="translate(-353.996 -146.9)"/></g><g transform="translate(105.41 27.262)"><path class="l" d="M355.724,153.723a.98.98,0,0,0-.633.316,2.665,2.665,0,0,0-.791,1.9,3.059,3.059,0,0,0,1.9,2.532,5.237,5.237,0,0,0,3.8,0A5.666,5.666,0,0,0,363,156.1a5.592,5.592,0,0,0,.949-3.006c0-.949-.158-1.582-.158-2.057a1.732,1.732,0,0,0-.316-.633,21.051,21.051,0,0,1,.158,2.69,7.467,7.467,0,0,1-1.108,2.69,4.818,4.818,0,0,1-2.848,2.057,4.415,4.415,0,0,1-3.481,0,3.13,3.13,0,0,1-1.741-2.057,1.971,1.971,0,0,1,.633-1.741C355.566,153.723,355.724,153.723,355.724,153.723Z" transform="translate(-354.3 -150.4)"/></g><g transform="translate(91.328 16.336)"><path class="l" d="M349.2,151.889a2.781,2.781,0,0,0-.475-1.266,5.746,5.746,0,0,0-2.532-2.057v.475a8.384,8.384,0,0,0,1.582-.949,11.927,11.927,0,0,0,4.43-4.589c-.158-.158-1.741,2.215-4.747,4.114-.475.316-1.108.633-1.582.949l-.475.316.633.158a8.7,8.7,0,0,1,2.532,1.741C348.881,151.414,349.039,151.889,349.2,151.889Z" transform="translate(-345.4 -143.495)"/></g><g transform="translate(116.145 17.118)"><path class="l" d="M362.059,144.006c-.158-.158-.791.791-.949,2.057a2.5,2.5,0,0,0,.633,2.215c.158,0-.158-.949-.158-2.057C361.742,144.956,362.217,144.165,362.059,144.006Z" transform="translate(-361.084 -143.989)"/></g></g><g transform="translate(0 144.886)"><path class="k" d="M171.955,168.868s-10.285-16.772-12.184-18.2-18.2-7.437-19.621-6.962-21.2,3.8-18.988,6.171,16.139-.158,16.139-.158l1.9.949s-11.867,1.9-14.4,3.323c-2.373,1.266-1.582,4.114.633,3.956s12.5-2.215,13.133-1.741-11.234,2.848-12.5,3.481c-1.741.949-1.9,4.114.316,3.956,1.266-.158,12.5-3.006,12.5-3.006s-8.861,3.481-9.652,4.272a1.664,1.664,0,0,0,1.582,2.848c1.266-.316,7.6-3.323,9.336-3.639,0,0,1.582.475,3.165,3.8.633,1.582,3.956,11.393,9.81,11.234,5.222-.158,10.285,4.114,10.285,4.114Z" transform="translate(-120.991 -143.683)"/><g transform="translate(0.331 5.406)"><path class="l" d="M121.2,147.891c0,.158,1.266.633,3.639.949a16.836,16.836,0,0,0,4.114.158c1.582-.158,3.165-.475,4.905-.633,1.266-.158,2.532-.316,3.639-.475h-.158c4.905,1.741,8.544,2.848,8.544,2.69s-3.323-1.741-8.228-3.481h-.316c-1.108.158-2.373.316-3.639.475-1.741.316-3.323.475-4.905.633a16.482,16.482,0,0,1-3.956,0C122.624,148.049,121.2,147.733,121.2,147.891Z" transform="translate(-121.2 -147.1)"/></g><g transform="translate(19.857 12.035)"><g transform="translate(0.326 0.334)"><path class="k" d="M156.775,162.26c-1.266,1.108-3.165.791-4.589,0s-2.532-2.215-3.8-3.165c-3.956-2.848-9.81-2.215-13.766-5.222-.475-.475-1.108-1.108-.791-1.741s1.108-.633,1.741-.633c5.38.158,10.918.316,16.3.316" transform="translate(-133.746 -151.5)"/></g><path class="l" d="M151.99,152.1a7.906,7.906,0,0,0-1.741-.158c-1.108-.158-2.848-.158-4.747-.316-2.057-.158-4.589-.158-7.12-.316h-2.057a3.4,3.4,0,0,0-2.373.475,1.454,1.454,0,0,0-.316,1.582,2.838,2.838,0,0,0,.791,1.108,8.971,8.971,0,0,0,2.057,1.266c3.006,1.424,6.013,1.582,8.386,2.373a10.774,10.774,0,0,1,3.323,1.582c.949.633,1.741,1.424,2.532,2.057a5.431,5.431,0,0,0,4.589,1.582,1.855,1.855,0,0,0,1.582-.949c0-.158-.475.475-1.582.475a5.132,5.132,0,0,1-4.114-1.741c-.791-.633-1.582-1.424-2.532-2.215a11.963,11.963,0,0,0-3.481-1.741c-2.532-.949-5.538-1.108-8.386-2.373-.633-.316-1.266-.791-1.9-1.108-.475-.475-.791-.949-.475-1.266s.949-.316,1.741-.316h13.924Q151.99,152.335,151.99,152.1Z" transform="translate(-133.54 -151.289)"/></g></g><g transform="translate(114.731 540.645)"><path class="m" d="M210.114,393.8l-3.8,41.456-12.5,31.962a4.284,4.284,0,0,0,2.69,5.7h0a4.115,4.115,0,0,0,3.8-.633c6.962-5.38,32.754-25.159,32.754-28.165.158-3.481,6.962-43.513,6.962-43.513Z" transform="translate(-193.5 -393.8)"/><g class="n" transform="translate(3.165 47.469)"><path class="f" d="M195.5,455.446,232.526,423.8l-.158,1.74a6.443,6.443,0,0,1-2.057,3.956c-3.006,2.848-11.393,10.285-30.855,25.317a4.434,4.434,0,0,1-3.956.633Z" transform="translate(-195.5 -423.8)"/></g><g class="n" transform="translate(31.78 32.835)"><path class="f" d="M214.875,414.786a2.722,2.722,0,0,0-1.108,3.323,2.371,2.371,0,0,0,3.165,1.108,2.805,2.805,0,0,0,1.108-3.481,2.57,2.57,0,0,0-3.481-.791" transform="translate(-213.584 -414.552)"/></g><g transform="translate(6.804 56.646)"><path class="o" d="M205.712,434.98c-.316.158-.949-2.215-3.323-3.639a9.4,9.4,0,0,0-4.589-1.424c0-.158.475-.316,1.582-.316a7.3,7.3,0,0,1,3.639,1.108,7.038,7.038,0,0,1,2.532,2.848A8.076,8.076,0,0,1,205.712,434.98Z" transform="translate(-197.8 -429.6)"/></g><g transform="translate(3.632 63.662)"><path class="o" d="M203.24,437.62c-.158.158-1.424-1.266-3.481-2.215a16.052,16.052,0,0,0-3.956-.949c-.158-.158,2.057-.949,4.272.158A5.2,5.2,0,0,1,203.24,437.62Z" transform="translate(-195.795 -434.034)"/></g><g transform="translate(9.811 49.555)"><path class="o" d="M210.776,431.1c-.158.158-2.057-2.215-5.063-3.8a21.791,21.791,0,0,0-6.013-2.057c0-.158,3.165-.475,6.487,1.266S211.093,431.1,210.776,431.1Z" transform="translate(-199.7 -425.118)"/></g><g transform="translate(12.335 40.533)"><path class="o" d="M212.062,421.922c-.158.158-2.373-.949-5.222-1.424-3.006-.475-5.38,0-5.538-.316-.158-.158,2.373-1.108,5.538-.633C210.163,420.023,212.22,421.764,212.062,421.922Z" transform="translate(-201.296 -419.417)"/></g><g transform="translate(13.292 28.44)"><path class="o" d="M213.134,414.189c-.158.158-2.373-1.424-5.538-1.582-3.165-.316-5.538.949-5.7.791,0-.158.475-.633,1.424-.949a8.4,8.4,0,0,1,4.272-.633,11.49,11.49,0,0,1,4.114,1.266C212.818,413.556,213.293,414.189,213.134,414.189Z" transform="translate(-201.9 -411.774)"/></g><g transform="translate(13.608 19.247)"><path class="o" d="M207.955,413.616a3.077,3.077,0,0,1,.158-1.582,9.977,9.977,0,0,1,1.741-3.956,4.449,4.449,0,0,1,2.373-2.057,1.816,1.816,0,0,1,1.9.633,2.854,2.854,0,0,1,.475,1.9,5.838,5.838,0,0,1-5.854,4.905,7.172,7.172,0,0,1-6.487-4.43,2.366,2.366,0,0,1,.158-2.057,1.816,1.816,0,0,1,1.9-.633,5.162,5.162,0,0,1,2.532,1.741,16.821,16.821,0,0,1,2.532,3.481,3.4,3.4,0,0,1,.475,1.582c-.158.158-.791-2.215-3.323-4.589a4.853,4.853,0,0,0-2.215-1.424.7.7,0,0,0-.949.316,1.733,1.733,0,0,0,0,1.266,6.364,6.364,0,0,0,5.538,3.8,5.292,5.292,0,0,0,5.063-4.114,2.127,2.127,0,0,0-.316-1.424.908.908,0,0,0-1.108-.316c-.791.158-1.424,1.108-2.057,1.741A18.418,18.418,0,0,0,207.955,413.616Z" transform="translate(-202.1 -405.964)"/></g></g><g transform="translate(124.7 249.186)"><g transform="translate(0 12.658)"><path class="o" d="M244.579,520.769l31.013-246.048L265.624,217.6l-58.545,3.165L199.8,516.338a4.587,4.587,0,0,0,3.639,4.589l34.178,5.222A6.26,6.26,0,0,0,244.579,520.769Z" transform="translate(-199.8 -217.6)"/></g><g transform="translate(50.159)"><path class="o" d="M256.342,287.607l56.488,55.855L231.5,363.241l5.855,40.982,109.97-15.032a34.523,34.523,0,0,0,23.418-14.082h0a34.5,34.5,0,0,0,.475-39.716L285.456,209.6l-38.292,12.5Z" transform="translate(-231.5 -209.6)"/></g><g transform="translate(71.383 63.764)"><g transform="translate(0 0)"><ellipse class="p" cx="7.279" cy="0.475" rx="7.279" ry="0.475" transform="matrix(-0.214, -0.977, 0.977, -0.214, 3.118, 14.423)"/></g></g><g transform="translate(39.716 63.134)"><path class="p" d="M248.793,345.229s.475-.158,1.266-.475c.949-.317,2.215-.633,3.956-1.266,3.481-1.108,8.544-2.69,15.19-4.589,13.133-3.956,32.121-9.652,55.222-16.614l-.158.475c-19.146-20.412-42.406-45.1-67.881-72.153l.633-.158c-1.266,11.393-2.69,23.26-4.114,35.285-6.962,58.545-13.608,111.552-18.671,149.844-2.532,19.146-4.747,34.652-6.329,45.412-.949,5.38-1.424,9.494-2.057,12.342-.316,1.424-.475,2.373-.633,3.165a4.948,4.948,0,0,1-.316,1.108,6.62,6.62,0,0,1,.158-1.108c.158-.791.316-1.741.633-3.165.633-2.848,1.108-6.962,1.9-12.342,1.582-10.76,3.639-26.266,6.171-45.412,4.905-38.292,11.393-91.3,18.355-150,1.424-12.026,2.848-23.893,4.114-35.285l.158-.791.633.633c25.475,27.216,48.577,51.9,67.722,72.311l.316.316-.475.158c-23.1,6.8-42.089,12.5-55.222,16.3-6.487,1.9-11.709,3.481-15.19,4.43-1.741.475-3.006.949-3.956,1.108A3.674,3.674,0,0,1,248.793,345.229Z" transform="translate(-224.9 -249.5)"/></g><g transform="translate(45.409 78.007)"><path class="p" d="M228.5,491.973c-.158,0,6.171-52.216,14.4-116.616S257.932,258.9,258.09,258.9s-6.171,52.216-14.4,116.615S228.659,492.131,228.5,491.973Z" transform="translate(-228.498 -258.9)"/></g><g transform="translate(65.783 37.817)"><path class="p" d="M241.415,233.5c.158,0,.633,1.424,1.266,3.8s1.582,5.7,2.373,9.494c.791,3.639,1.424,7.12,1.741,9.494.316,2.532.475,3.956.475,3.956-.158,0-.475-1.424-.949-3.956-.633-2.69-1.266-5.854-2.057-9.494-.791-3.481-1.582-6.8-2.057-9.494C241.573,235.082,241.257,233.5,241.415,233.5Z" transform="translate(-241.375 -233.5)"/></g><g transform="translate(68.142 32.444)"><path class="p" d="M244.186,230.572c-.158,0,.791-.791,2.373-.316a2.918,2.918,0,0,1,1.741,2.057,2.987,2.987,0,0,1-1.266,3.006,3.151,3.151,0,0,1-3.323-.316,2.743,2.743,0,0,1-.791-2.532,1.8,1.8,0,0,1,1.108-1.424,1.577,1.577,0,0,1,.633-.158,3.716,3.716,0,0,0-1.108,1.741,1.816,1.816,0,0,0,.633,1.9,2.071,2.071,0,0,0,3.323-2.057,2.175,2.175,0,0,0-1.266-1.582C245.136,230.414,244.186,230.731,244.186,230.572Z" transform="translate(-242.865 -230.104)"/></g><g transform="translate(131.643 133.846)"><path class="p" d="M299.458,303.858c-.158.158-3.323-2.69-7.911-5.38s-8.7-3.956-8.544-4.272c0-.158,4.272.791,9.019,3.481C296.609,300.535,299.616,303.7,299.458,303.858Z" transform="translate(-282.997 -294.189)"/></g></g><g transform="translate(33.718 83.361)"><g transform="translate(84.653)"><path class="q" d="M228.237,115.56,195.8,131.224l13.924,97.628-5.538,43.83a17.363,17.363,0,0,0,5.7,15.032h0l52.374-1.108,36.709-20.1,16.772-2.848-6.962-33.387,3.165-47.311,38.292,20.412a12.811,12.811,0,0,0,9.652,1.108l70.254-18.2L426.5,159.231l-63.608,7.12-48.418-42.88L278.4,115.4l-6.487-10.6H235.041l-2.532,1.9a7.6,7.6,0,0,0-2.69,3.639Z" transform="translate(-195.8 -104.8)"/></g><g transform="translate(0 3.836)"><g transform="translate(0 22.588)"><path class="r" d="M226.953,121.5s-10.6,6.8-14.557,18.988c-3.639,11.551-12.026,58.07-12.026,58.07L163.5,175.615l-21.2,22.31,49.21,43.355a25.187,25.187,0,0,0,27.374,3.8h0a24.747,24.747,0,0,0,13.924-19.146l6.013-44.146Z" transform="translate(-142.3 -121.5)"/></g><g transform="translate(164.243 158.824)"><path class="s" d="M277.113,210.923,274.9,207.6l-24.367,4.43-4.43,10.285Z" transform="translate(-246.1 -207.6)"/></g><g transform="translate(98.736 104.077)"><path class="t" d="M204.7,248c21.678,8.7,44.779,5.538,65.507-5.38,6.171-3.323,12.026-7.437,18.2-10.6,6.329-3.323,13.133-5.7,20.253-5.222,6.962.475,14.082,4.43,16.931,10.918s0,15.348-6.646,17.722c.791.633,1.582,1.424,2.373,2.057,9.652-4.589,14.4-17.564,9.652-27.216-3.639-7.437-11.234-11.709-16.931-17.88-8.228-8.861-9.177-25.95-9.177-39.4" transform="translate(-204.7 -173)"/></g><g transform="translate(117.028 6.765)"><path class="u" d="M245.6,130.488a10.656,10.656,0,0,0-1.582.158,5.786,5.786,0,0,0-3.8,1.741,9.283,9.283,0,0,0-1.9,6.171,19.754,19.754,0,0,0,1.741,8.228l.633,1.424-1.266-.949a67.913,67.913,0,0,1-8.228-7.279,57.42,57.42,0,0,1-12.5-19.3,37.021,37.021,0,0,1-2.057-6.646c-.316-1.582-.475-2.532-.316-2.532a59.6,59.6,0,0,0,3.006,9.019,62.241,62.241,0,0,0,12.658,18.829,65.1,65.1,0,0,0,8.07,7.12l-.633.475a24.011,24.011,0,0,1-1.424-4.43,13.011,13.011,0,0,1-.316-4.272,9.193,9.193,0,0,1,2.215-6.487,6.809,6.809,0,0,1,4.114-1.741A3.927,3.927,0,0,0,245.6,130.488Z" transform="translate(-216.261 -111.5)"/></g><g transform="translate(148.261)"><g transform="translate(0 0.196)"><path class="v" d="M236,132.905c2.69-1.108,6.646.475,8.544,2.69,1.266,1.424,2.057,3.481,3.639,4.43,1.741.949,6.962,1.741,8.544.475,0,0,.949-4.43,1.424-6.329a144.2,144.2,0,0,0,3.639-21.678c-5.063-2.532-3.639-5.7-12.817-5.063,0,0,2.373,6.8.316,12.975" transform="translate(-236 -107.348)"/></g><path class="w" d="M249.133,120.477c-.158,0,.316-1.266.475-3.481a27.207,27.207,0,0,0-1.108-9.336l-.158-.316h.316a14.67,14.67,0,0,1,6.8.633,11.367,11.367,0,0,1,3.165,2.215,16.029,16.029,0,0,0,3.165,2.215l.316.158v.316c-.475,3.8-.949,8.07-1.582,12.342-.475,2.848-1.108,5.538-1.741,8.228s-1.108,5.063-1.741,7.437v.158h-.158a4.471,4.471,0,0,1-2.69.633,12.788,12.788,0,0,1-2.532-.158l-2.373-.475a4.318,4.318,0,0,1-2.057-1.108,18.837,18.837,0,0,1-2.373-3.323,8.246,8.246,0,0,0-2.532-2.215,8.825,8.825,0,0,0-4.589-1.424,4.2,4.2,0,0,0-1.741.316,4.416,4.416,0,0,1,1.741-.475,7.876,7.876,0,0,1,4.747,1.266,7.485,7.485,0,0,1,2.69,2.373c.791.949,1.424,2.215,2.373,3.165s2.532,1.108,4.114,1.424a11.975,11.975,0,0,0,2.373.158,4.6,4.6,0,0,0,2.215-.475l-.158.158c.475-2.373,1.108-4.905,1.741-7.6.633-2.532,1.266-5.38,1.741-8.07.791-4.272,1.266-8.544,1.582-12.342l.158.316a12.671,12.671,0,0,1-3.323-2.373,11.611,11.611,0,0,0-2.848-2.215,15.4,15.4,0,0,0-6.487-.633l.316-.475a28.1,28.1,0,0,1,.949,9.652,18.358,18.358,0,0,1-.475,2.532A6.653,6.653,0,0,1,249.133,120.477Z" transform="translate(-236 -107.224)"/></g><g transform="translate(146.046 28.126)"><path class="x" d="M304.063,259.5v-1.741a13.223,13.223,0,0,0-1.582-4.905,16.83,16.83,0,0,0-5.855-5.7,24.648,24.648,0,0,0-10.443-2.848c-3.956-.316-8.544-.158-13.291-.475a48.276,48.276,0,0,1-15.032-3.165,31.045,31.045,0,0,1-13.45-10.127,25.564,25.564,0,0,1-3.956-8.07,36.2,36.2,0,0,1-.949-9.177c.316-6.329,1.741-12.184,2.532-17.88a124.928,124.928,0,0,0,1.582-16.772,138.055,138.055,0,0,0-2.057-28.323,178.868,178.868,0,0,0-4.589-18.671,39.833,39.833,0,0,0-1.741-4.905,10.9,10.9,0,0,0-.475-1.266A1.225,1.225,0,0,1,234.6,125a.693.693,0,0,1,.158.475,10.9,10.9,0,0,1,.475,1.266c.475,1.108,1.108,2.69,1.9,4.905a126.316,126.316,0,0,1,4.905,18.671,129.265,129.265,0,0,1,2.215,28.481,124.933,124.933,0,0,1-1.582,16.772c-.791,5.855-2.215,11.709-2.532,17.88s1.108,12.184,4.589,16.772a30.336,30.336,0,0,0,13.133,9.81,45.548,45.548,0,0,0,14.715,3.165c4.747.316,9.177.158,13.291.633a23.845,23.845,0,0,1,10.6,3.006,15.857,15.857,0,0,1,5.855,5.855,10.742,10.742,0,0,1,1.424,5.063v1.424C304.063,259.337,304.063,259.5,304.063,259.5Z" transform="translate(-234.6 -125)"/></g><g transform="translate(131.647 133.824)"><path class="y" d="M285.627,191.8l-1.9,1.9c-.633.633-1.424,1.266-2.215,2.057a27.675,27.675,0,0,1-3.165,2.532,90.8,90.8,0,0,1-8.7,6.013,98.381,98.381,0,0,1-11.551,5.855,93.913,93.913,0,0,1-12.342,4.114c-3.956.949-7.437,1.582-10.443,2.057-1.424.158-2.848.316-4.114.475a22.4,22.4,0,0,1-3.006.158H225.5s.949-.158,2.532-.316a24.376,24.376,0,0,0,3.006-.316c1.266-.158,2.532-.316,3.956-.475a81.346,81.346,0,0,0,10.285-2.215,110.589,110.589,0,0,0,12.184-4.114,87.378,87.378,0,0,0,11.551-5.854c3.481-2.057,6.329-4.114,8.861-5.854a27.681,27.681,0,0,0,3.165-2.532q1.424-1.187,2.373-1.9A25.328,25.328,0,0,1,285.627,191.8Z" transform="translate(-225.5 -191.8)"/></g><g transform="translate(127.85 81.766)"><path class="z" d="M276.9,158.9a4.428,4.428,0,0,1-.158.949,24.833,24.833,0,0,0-.475,2.532,24.142,24.142,0,0,1-1.108,3.8c-.475,1.424-.949,3.165-1.741,5.063-.316.949-.791,1.9-1.108,2.848a25.812,25.812,0,0,1-1.424,3.006q-1.424,3.085-3.323,6.646a92.076,92.076,0,0,1-9.652,13.924,105.61,105.61,0,0,1-12.025,11.867c-2.057,1.582-3.956,3.165-5.854,4.43l-2.848,1.9c-.949.475-1.741,1.108-2.69,1.582-1.741,1.108-3.323,1.741-4.589,2.532a36.223,36.223,0,0,1-3.639,1.741c-.949.316-1.741.791-2.373.949a6.656,6.656,0,0,0-.791.316,8.221,8.221,0,0,0,.791-.475c.633-.316,1.424-.633,2.215-1.108.949-.475,2.215-1.108,3.481-1.9a48.825,48.825,0,0,0,4.589-2.69c.791-.475,1.741-1.108,2.532-1.582.949-.633,1.741-1.266,2.69-1.9,1.9-1.266,3.8-2.848,5.854-4.43a93.313,93.313,0,0,0,11.867-11.867,115.486,115.486,0,0,0,9.652-13.766c1.266-2.215,2.373-4.43,3.323-6.487.475-1.108.949-2.057,1.424-3.006a21.132,21.132,0,0,0,1.108-2.848,46.814,46.814,0,0,0,1.741-4.905,24.146,24.146,0,0,0,1.108-3.8c.316-.949.475-1.741.633-2.373A4.471,4.471,0,0,0,276.9,158.9Z" transform="translate(-223.1 -158.9)"/></g><g transform="translate(105.381 165.47)"><path class="aa" d="M218.394,233.319a12.385,12.385,0,0,1-2.848-2.215,21.731,21.731,0,0,1-6.646-15.665,12.593,12.593,0,0,1,.475-3.639c.158,0,0,1.424.158,3.481a26.325,26.325,0,0,0,1.9,8.228,23.064,23.064,0,0,0,4.589,7.12C217.444,232.37,218.552,233.161,218.394,233.319Z" transform="translate(-208.9 -211.8)"/></g><g transform="translate(112.912 174.639)"><path class="ab" d="M214.515,217.6c.158,0-.158,2.057,0,4.589s.949,4.43.791,4.589-1.424-1.741-1.582-4.43C213.407,219.5,214.357,217.445,214.515,217.6Z" transform="translate(-213.66 -217.595)"/></g><g transform="translate(84.495 44.108)"><path class="ac" d="M209.308,208.993a1.92,1.92,0,0,1-.158-.791c-.158-.633-.158-1.266-.316-2.215-.316-2.057-.791-4.747-1.266-7.912-1.108-6.646-2.69-15.981-4.589-26.108s-3.8-19.3-5.063-25.95c-.633-3.165-1.266-5.855-1.582-7.911-.158-.791-.316-1.582-.475-2.215a2.77,2.77,0,0,1-.158-.791,6.654,6.654,0,0,1,.316.791,14.7,14.7,0,0,0,.633,2.057c.475,1.9,1.108,4.589,1.9,7.753,1.582,6.646,3.481,15.823,5.38,25.95s3.323,19.462,4.272,26.108c.475,3.323.791,6.013,1.108,7.912.158.791.158,1.582.316,2.215A3.569,3.569,0,0,0,209.308,208.993Z" transform="translate(-195.7 -135.1)"/></g><g transform="translate(199.212 41.259)"><path class="ad" d="M268.358,210.042a2.769,2.769,0,0,0-.158-.791V198.807c0-6.962.316-16.614,1.108-27.216s1.9-20.253,2.69-27.057c.475-3.323.791-6.171,1.108-8.228a14.748,14.748,0,0,0,.316-2.215,2.77,2.77,0,0,0,.158-.791v.791c0,.633-.158,1.424-.158,2.215-.158,2.057-.475,4.905-.791,8.228-.633,6.962-1.582,16.456-2.532,27.057-.791,10.6-1.266,20.253-1.424,27.216-.158,3.323-.158,6.171-.158,8.228a9.053,9.053,0,0,1-.158,2.215A1.1,1.1,0,0,1,268.358,210.042Z" transform="translate(-268.2 -133.3)"/></g><g transform="translate(58.066 99.804)"><path class="ae" d="M193.875,192.61c-.316.158-2.373-5.7-6.329-11.867-4.114-6.329-8.7-10.285-8.544-10.443a24.537,24.537,0,0,1,3.165,2.532,46.4,46.4,0,0,1,6.171,7.437,56,56,0,0,1,4.43,8.544C193.4,191.028,193.875,192.452,193.875,192.61Z" transform="translate(-178.997 -170.3)"/></g><g transform="translate(57.899 99.765)"><path class="af" d="M196.627,185.663c-.158,0-.633-1.266-1.741-3.006a21.674,21.674,0,0,0-5.538-6.329,34.485,34.485,0,0,0-7.279-4.43c-2.057-.949-3.323-1.424-3.165-1.582,0-.158,1.424.158,3.481.949a31.747,31.747,0,0,1,7.6,4.272,19.819,19.819,0,0,1,5.38,6.8A21.072,21.072,0,0,1,196.627,185.663Z" transform="translate(-178.892 -170.275)"/></g><g transform="translate(64.492 56.26)"><path class="ag" d="M210.5,163.7a.98.98,0,0,1-.316.633,11.541,11.541,0,0,1-1.424,1.741A9.359,9.359,0,0,1,201,168.128c-3.481-.475-7.279-3.006-9.81-6.962a29.588,29.588,0,0,1-3.165-6.329,24.593,24.593,0,0,1-1.266-3.639,10.884,10.884,0,0,1-.475-3.956,5.491,5.491,0,0,1,1.9-3.639,4.435,4.435,0,0,1,3.956-.633,7.755,7.755,0,0,1,4.589,11.393,8.2,8.2,0,0,1-4.589,3.481,8,8,0,0,1-4.747-.158,6.647,6.647,0,0,1-2.848-2.057,7.718,7.718,0,0,1-1.266-1.9c-.158-.475-.316-.791-.158-.791a8.528,8.528,0,0,0,1.741,2.373,7.99,7.99,0,0,0,2.848,1.741,6.948,6.948,0,0,0,8.544-3.165,6.807,6.807,0,0,0,.475-5.854,7.022,7.022,0,0,0-4.747-4.43,3.238,3.238,0,0,0-3.165.633,4.349,4.349,0,0,0-1.582,3.006c-.316,2.373.791,4.905,1.582,7.12a39.384,39.384,0,0,0,3.165,6.329,14.513,14.513,0,0,0,9.177,6.8,9.369,9.369,0,0,0,7.437-1.741C210.023,164.647,210.34,163.54,210.5,163.7Z" transform="translate(-183.059 -142.78)"/></g><g transform="translate(89.083 40.937)"><path class="ah" d="M263.633,193.546a1.958,1.958,0,0,1-.475.316,8.776,8.776,0,0,1-1.266.949,46.257,46.257,0,0,1-5.38,3.481,16.2,16.2,0,0,1-4.43,1.424,11.092,11.092,0,0,1-5.538-.316c-3.956-1.266-7.437-4.589-9.969-8.861a30.918,30.918,0,0,1-4.589-15.665,32.091,32.091,0,0,1,4.905-18.038,16.7,16.7,0,0,1,7.437-6.962,10.158,10.158,0,0,1,5.38-.633,7.285,7.285,0,0,1,4.747,2.69,8.157,8.157,0,0,1,1.424,5.38,12.7,12.7,0,0,1-1.741,5.38,17.237,17.237,0,0,1-8.861,7.12,21.132,21.132,0,0,1-11.234,1.108,20.779,20.779,0,0,1-10.127-4.272c-6.013-4.272-9.81-10.6-12.025-16.772-1.108-3.165-1.9-6.329-1.424-9.652a9.251,9.251,0,0,1,1.9-4.43,6.787,6.787,0,0,1,3.8-2.532,8.427,8.427,0,0,1,7.911,2.69,9.027,9.027,0,0,1,1.9,7.6,11.19,11.19,0,0,1-3.323,6.329,16.52,16.52,0,0,1-5.38,3.481,27.823,27.823,0,0,1-10.127,1.582c-2.848-.158-4.905-.475-6.329-.633a13.722,13.722,0,0,1-1.582-.316,1.636,1.636,0,0,1-.633-.158h.633c.475,0,.949.158,1.582.158a52.077,52.077,0,0,0,6.329.475,26.269,26.269,0,0,0,9.81-1.582,17.712,17.712,0,0,0,5.222-3.481,10.856,10.856,0,0,0,3.006-6.171,8.558,8.558,0,0,0-1.9-7.12,7.83,7.83,0,0,0-7.279-2.532c-2.848.633-4.747,3.323-5.222,6.329s.316,6.171,1.424,9.177a34.082,34.082,0,0,0,11.709,16.3,21.7,21.7,0,0,0,9.81,4.114,21.429,21.429,0,0,0,10.918-1.108,16.193,16.193,0,0,0,8.386-6.8,11.841,11.841,0,0,0,1.582-5.063,7.644,7.644,0,0,0-1.266-4.905,5.9,5.9,0,0,0-4.272-2.373,8.834,8.834,0,0,0-4.905.633c-3.006,1.266-5.38,3.956-7.12,6.646a31.339,31.339,0,0,0-4.747,17.564,31.744,31.744,0,0,0,4.43,15.348c2.532,4.272,6.013,7.437,9.652,8.7a12.906,12.906,0,0,0,9.652-.949,26.571,26.571,0,0,0,5.538-3.323,5.5,5.5,0,0,1,1.424-.949C263.474,193.7,263.633,193.546,263.633,193.546Z" transform="translate(-198.6 -133.096)"/></g><g transform="translate(78.799 12.62)"><path class="ai" d="M223.746,115.2l-.475,1.424a17.69,17.69,0,0,1-2.057,3.481,25.139,25.139,0,0,1-10.285,8.7,27.611,27.611,0,0,1-13.291,2.532c-1.741-.158-3.165-.475-4.114-.633l-1.424-.475c0-.158,2.057.475,5.538.633a27.836,27.836,0,0,0,12.817-2.69,26.34,26.34,0,0,0,10.127-8.386A49.452,49.452,0,0,0,223.746,115.2Z" transform="translate(-192.1 -115.2)"/></g><g transform="translate(126.48 19.241)"><path class="aj" d="M229.617,119.567c0,.316-2.373.316-4.43,2.215a10.28,10.28,0,0,0-2.848,4.114c-.158,0-.158-.633.158-1.582a6.473,6.473,0,0,1,2.215-3.165,7.5,7.5,0,0,1,3.481-1.582C228.984,119.251,229.617,119.409,229.617,119.567Z" transform="translate(-222.234 -119.385)"/></g><g transform="translate(157.914 14.765)"><path class="ak" d="M251.436,130.55a7.213,7.213,0,0,1-1.266-.633,14.114,14.114,0,0,1-3.006-2.69,11.69,11.69,0,0,1-2.215-5.538,5.542,5.542,0,0,1,.949-3.481,3.661,3.661,0,0,1,3.639-1.582,4.072,4.072,0,0,1,2.848,2.69,3.789,3.789,0,0,1-.791,3.639,5.2,5.2,0,0,1-5.7,1.582,6.006,6.006,0,0,1-3.165-2.532,5.832,5.832,0,0,1-.633-1.424s.316.475.791,1.108A7.812,7.812,0,0,0,245.9,123.9a4.671,4.671,0,0,0,4.905-1.424,2.694,2.694,0,0,0,.475-2.848,3.823,3.823,0,0,0-2.215-2.215,2.652,2.652,0,0,0-2.848,1.266,4.345,4.345,0,0,0-.791,3.006,11.5,11.5,0,0,0,1.9,5.38C249.537,129.443,251.594,130.392,251.436,130.55Z" transform="translate(-242.1 -116.556)"/></g><g transform="translate(162.028 4.97)"><path class="al" d="M256.251,115.642c-.158.158-1.9-2.373-5.222-3.639-3.323-1.424-6.329-.791-6.329-1.108q0-.237,1.9-.475a9.072,9.072,0,0,1,4.747.791,11.467,11.467,0,0,1,3.956,2.69C256.093,114.851,256.409,115.484,256.251,115.642Z" transform="translate(-244.7 -110.365)"/></g><g transform="translate(157.281 15.655)"><path class="am" d="M301.511,130.064a.49.49,0,0,0-.316.158l-.949.475a25.039,25.039,0,0,1-3.8,1.582,44.812,44.812,0,0,1-14.874,2.848,28.743,28.743,0,0,1-5.063-.475,11.407,11.407,0,0,1-5.063-2.373,7.406,7.406,0,0,1-2.373-5.38,9.553,9.553,0,0,1,2.057-6.013c2.848-3.481,8.07-4.589,12.658-3.165a14.66,14.66,0,0,1,10.127,9.81A14.813,14.813,0,0,1,290.91,141.3c-3.165,3.639-7.6,5.38-11.709,6.329a64.771,64.771,0,0,1-12.025,1.266,65.112,65.112,0,0,0-10.285.949c-6.171,1.266-10.6,4.43-12.817,7.279a10.265,10.265,0,0,0-2.373,4.905v-.316a6.453,6.453,0,0,1,.316-1.108,11.51,11.51,0,0,1,1.9-3.639c2.057-3.006,6.487-6.329,12.817-7.6a68.216,68.216,0,0,1,10.443-1.108,63.144,63.144,0,0,0,11.867-1.266c3.956-.949,8.228-2.69,11.234-6.171a14.064,14.064,0,0,0,2.848-12.975,13.514,13.514,0,0,0-9.494-9.177c-4.272-1.266-9.177-.158-11.867,3.006a7.76,7.76,0,0,0-1.9,5.38,6.488,6.488,0,0,0,2.215,4.905,10.378,10.378,0,0,0,4.747,2.373,17.774,17.774,0,0,0,4.905.475,47.819,47.819,0,0,0,14.874-2.532q2.611-.949,3.8-1.424A3.249,3.249,0,0,1,301.511,130.064Z" transform="translate(-241.7 -117.118)"/></g><g transform="translate(155.698 80.337)"><path class="an" d="M262.694,168.445c-.158,0-.633-1.266-2.057-3.165a16.836,16.836,0,0,0-7.279-5.38,18.434,18.434,0,0,0-9.019-.791c-2.373.475-3.639,1.108-3.639.949a11.427,11.427,0,0,1,3.639-1.582,15.511,15.511,0,0,1,16.772,6.329A12.359,12.359,0,0,1,262.694,168.445Z" transform="translate(-240.7 -157.997)"/></g><g transform="translate(173.895 102.653)"><path class="ao" d="M274.352,172.1a9.177,9.177,0,0,1-2.215,3.165,13.137,13.137,0,0,1-17.247,1.424,10.271,10.271,0,0,1-2.69-2.848c.158-.158.949,1.108,3.006,2.373a13.708,13.708,0,0,0,8.544,2.215,14.59,14.59,0,0,0,10.6-6.329Z" transform="translate(-252.2 -172.1)"/></g><g transform="translate(184.3 69.43)"><path class="ap" d="M275.428,153c0,.158-.949-.475-2.69-.949a11.952,11.952,0,0,0-6.646.158,11.482,11.482,0,0,0-5.538,3.8c-1.108,1.266-1.582,2.373-1.741,2.373s.158-1.108,1.266-2.69a10.9,10.9,0,0,1,5.7-4.114,11.869,11.869,0,0,1,7.12.158C274.637,152.047,275.428,152.839,275.428,153Z" transform="translate(-258.776 -151.103)"/></g><g transform="translate(215.646 54.045)"><path class="aq" d="M322.754,144.1s.158.475.317,1.108a3.929,3.929,0,0,1,.158,1.424,8.914,8.914,0,0,1,0,2.057,19.822,19.822,0,0,1-4.589,11.867,24.568,24.568,0,0,1-6.8,5.7,22.334,22.334,0,0,1-9.81,2.215,26.156,26.156,0,0,1-20.253-10.127,14.212,14.212,0,0,1-2.848-5.538,11.056,11.056,0,0,1,.158-6.013,8.116,8.116,0,0,1,3.639-4.589,8.468,8.468,0,0,1,5.538-.633,9.291,9.291,0,0,1,4.747,2.532,9.918,9.918,0,0,1,2.532,4.272,15.339,15.339,0,0,1,0,8.861,15.756,15.756,0,0,1-3.8,6.329,13.524,13.524,0,0,1-4.43,3.323,10.7,10.7,0,0,1-3.165,1.266c-.791.158-1.108.316-1.266.158a34.616,34.616,0,0,0,4.272-1.741,17.4,17.4,0,0,0,7.753-9.494,13.784,13.784,0,0,0,0-8.386,10.185,10.185,0,0,0-2.373-3.956,8.555,8.555,0,0,0-4.272-2.215,7.968,7.968,0,0,0-5.063.633,7.23,7.23,0,0,0-3.323,4.114,8.31,8.31,0,0,0,0,5.538,13.715,13.715,0,0,0,2.69,5.222,25.826,25.826,0,0,0,19.621,9.81,20.438,20.438,0,0,0,9.494-2.057,19.107,19.107,0,0,0,6.646-5.38,19.361,19.361,0,0,0,4.589-11.393A14.242,14.242,0,0,0,322.754,144.1Z" transform="translate(-278.586 -141.38)"/></g><g transform="translate(268.985 55.817)"><path class="ar" d="M315.467,176.2a3.634,3.634,0,0,1-.949-1.108,12.99,12.99,0,0,1-1.741-3.639,13.982,13.982,0,0,1-.316-5.854,62.13,62.13,0,0,1,1.582-6.962,53.86,53.86,0,0,1,5.7-11.709c.949-1.424,1.582-2.532,2.215-3.323.475-.791.791-1.108.949-1.108a38.762,38.762,0,0,1-2.532,4.747,56.9,56.9,0,0,0-5.38,11.551,68.715,68.715,0,0,0-1.582,6.8,17.141,17.141,0,0,0,0,5.7C314.043,174.462,315.625,176.045,315.467,176.2Z" transform="translate(-312.296 -142.5)"/></g><g transform="translate(295.56 53.127)"><g transform="translate(0)"><path class="as" d="M335.592,140.8s.158.316.475,1.108a26.07,26.07,0,0,1,.791,3.323,29.571,29.571,0,0,1-.316,11.076,27.438,27.438,0,0,1-4.43,10.127c-.791,1.108-1.582,2.057-2.057,2.69s-.791.791-.949.791c-.158-.158,1.108-1.424,2.532-3.8a35.016,35.016,0,0,0,4.114-9.969,32.06,32.06,0,0,0,.475-10.76C335.909,142.382,335.434,140.8,335.592,140.8Z" transform="translate(-329.092 -140.8)"/></g></g><g transform="translate(159.338 121.887)"><path class="at" d="M282.241,189.389l-.633-.316c-.475-.316-1.108-.633-1.9-1.108a22.9,22.9,0,0,0-7.753-2.215,22.232,22.232,0,0,0-11.551,1.9,23.213,23.213,0,0,0-5.854,3.8,7.733,7.733,0,0,0-2.215,2.848,5.418,5.418,0,0,0-.791,3.481,4.2,4.2,0,0,0,1.741,3.006,3.232,3.232,0,0,0,3.165.158c2.215-.949,3.006-3.481,3.006-5.538a11.392,11.392,0,0,0-5.854-9.494,10.855,10.855,0,0,0-7.753-.949,15.3,15.3,0,0,0-2.848.949,4.68,4.68,0,0,1,.633-.475c.475-.158,1.108-.475,2.057-.791a11.558,11.558,0,0,1,8.07.791,11.727,11.727,0,0,1,6.329,9.968,10.383,10.383,0,0,1-.633,3.639,4.977,4.977,0,0,1-2.69,2.69,3.922,3.922,0,0,1-3.956-.158,4.781,4.781,0,0,1-2.057-3.481,6.7,6.7,0,0,1,.949-3.956,15.317,15.317,0,0,1,2.373-3.006,23.2,23.2,0,0,1,6.013-3.956,22.331,22.331,0,0,1,12.025-1.741,21.017,21.017,0,0,1,7.753,2.532c.791.475,1.424.949,1.9,1.266A1.593,1.593,0,0,1,282.241,189.389Z" transform="translate(-243 -184.256)"/></g><g transform="translate(199.824 140.141)"><path class="au" d="M273.038,195.8c.158.158-.633,1.741-1.9,3.639s-2.373,3.323-2.532,3.165.633-1.741,1.9-3.639C271.614,197.07,272.88,195.646,273.038,195.8Z" transform="translate(-268.587 -195.792)"/></g><g transform="translate(215.351 157.202)"><path class="av" d="M287.419,212.153c-.158,0-.316-.633-.949-1.424a6.516,6.516,0,0,0-2.848-2.532,9.407,9.407,0,0,0-3.639-1.108c-.949,0-1.582.158-1.582,0s.633-.475,1.582-.475a7.244,7.244,0,0,1,6.962,3.956A3.928,3.928,0,0,1,287.419,212.153Z" transform="translate(-278.4 -206.575)"/></g><g transform="translate(137.12 154.71)"><path class="aw" d="M250.86,205c0,.158-1.9,1.108-4.905,2.848a39.161,39.161,0,0,0-10.76,8.386,23.024,23.024,0,0,0-5.7,12.026,21.566,21.566,0,0,0,.158,5.7,3.92,3.92,0,0,1-.475-1.424,16.939,16.939,0,0,1-.158-4.272,21.11,21.11,0,0,1,5.7-12.5,36.23,36.23,0,0,1,11.076-8.228,34.023,34.023,0,0,1,3.8-1.741A2.317,2.317,0,0,1,250.86,205Z" transform="translate(-228.959 -205)"/></g><g transform="translate(179.203 147.273)"><path class="ax" d="M258.633,215.49a4.7,4.7,0,0,1-1.741-1.9,10.008,10.008,0,0,1-1.266-6.013,9.069,9.069,0,0,1,2.373-5.7c1.108-1.266,1.9-1.582,2.057-1.582.158.158-.633.633-1.582,1.9a10.421,10.421,0,0,0-1.9,5.538,11.555,11.555,0,0,0,.949,5.7A14.489,14.489,0,0,0,258.633,215.49Z" transform="translate(-255.555 -200.3)"/></g><g transform="translate(95.655 129.522)"><path class="ay" d="M252.986,193.383l-.949-.949a6.525,6.525,0,0,0-3.323-1.424,9.19,9.19,0,0,0-5.538,1.108,17.7,17.7,0,0,0-5.222,5.538c-1.582,2.373-2.848,5.222-4.905,8.07a16.854,16.854,0,0,1-20.728,5.855,17.11,17.11,0,0,1-8.861-9.336,10.639,10.639,0,0,1-.316-6.646,8.755,8.755,0,0,1,4.114-5.063,10.492,10.492,0,0,1,6.171-1.424,10.649,10.649,0,0,1,5.38,2.532,12.764,12.764,0,0,1,4.272,9.968,15.406,15.406,0,0,1-3.006,9.019,20.153,20.153,0,0,1-5.7,5.38,21.557,21.557,0,0,1-5.38,2.373,31.838,31.838,0,0,1-3.639.791,5.6,5.6,0,0,0-.949.158h-.316a11.616,11.616,0,0,1,1.266-.316c.791-.158,2.057-.475,3.639-.949a24.587,24.587,0,0,0,5.222-2.373,19.714,19.714,0,0,0,5.538-5.38,15.75,15.75,0,0,0,2.69-8.7,12.162,12.162,0,0,0-4.114-9.336,10.022,10.022,0,0,0-5.063-2.373,9.567,9.567,0,0,0-5.538,1.266,8.963,8.963,0,0,0-3.8,4.589,9.258,9.258,0,0,0,.316,6.171,15.437,15.437,0,0,0,8.386,8.861,15.055,15.055,0,0,0,11.393.633,16.086,16.086,0,0,0,8.386-6.171c1.9-2.69,3.323-5.538,4.905-8.07a16.8,16.8,0,0,1,5.538-5.538,8.276,8.276,0,0,1,5.854-1.108,8.09,8.09,0,0,1,3.323,1.582A3.872,3.872,0,0,1,252.986,193.383Z" transform="translate(-202.753 -189.081)"/></g><g transform="translate(139.156 138.571)"><path class="az" d="M237.452,214.737a8.334,8.334,0,0,1-2.532-2.057,17.158,17.158,0,0,1-3.956-6.8,17.42,17.42,0,0,1-.475-7.912c.316-2.057.949-3.165,1.108-3.165s-.316,1.266-.475,3.165a22.264,22.264,0,0,0,.633,7.6,17.37,17.37,0,0,0,3.481,6.646C236.661,213.788,237.611,214.579,237.452,214.737Z" transform="translate(-230.245 -194.8)"/></g><g transform="translate(96.204 103.411)"><path class="ba" d="M259.113,191.125c0,.158-1.108-.475-3.165-1.266a36.156,36.156,0,0,0-9.019-2.373,41.5,41.5,0,0,0-13.766.633,27.687,27.687,0,0,0-7.6,2.848,5.274,5.274,0,0,0-2.532,3.006,2.772,2.772,0,0,0,1.582,3.165,1.786,1.786,0,0,0,1.741-.475,3.772,3.772,0,0,0,.949-1.741,12.7,12.7,0,0,0,.316-4.272,17.612,17.612,0,0,0-2.057-7.753,16.217,16.217,0,0,0-4.43-5.7,17.846,17.846,0,0,0-5.538-3.165,19.828,19.828,0,0,0-9.177-.949,14.477,14.477,0,0,0-3.323.791,6.653,6.653,0,0,1,.791-.316,14.358,14.358,0,0,1,2.532-.633,18.359,18.359,0,0,1,15.19,3.8,19.307,19.307,0,0,1,4.747,5.854,19.773,19.773,0,0,1,2.215,8.07,20.893,20.893,0,0,1-.316,4.43,3.309,3.309,0,0,1-1.108,2.057,2.461,2.461,0,0,1-2.532.633,2.985,2.985,0,0,1-1.9-1.741,4.148,4.148,0,0,1-.316-2.373,4.957,4.957,0,0,1,2.848-3.481,29.682,29.682,0,0,1,7.912-2.848,35.849,35.849,0,0,1,14.082-.475,34.406,34.406,0,0,1,9.019,2.69c.949.475,1.741.791,2.373,1.108A1.182,1.182,0,0,0,259.113,191.125Z" transform="translate(-203.1 -172.58)"/></g><g transform="translate(15.055 84.931)"><path class="bb" d="M165.716,202.514s.949-.791,2.532-2.373a20.006,20.006,0,0,0,4.905-7.911,16.707,16.707,0,0,0-.475-13.45,15.893,15.893,0,0,0-5.063-6.171A14.332,14.332,0,0,0,159.7,169.6a9.231,9.231,0,0,0-4.114.949,5.557,5.557,0,0,0-2.848,2.848,3.738,3.738,0,0,0,.633,3.639,5.782,5.782,0,0,0,3.006,2.215,8.485,8.485,0,0,0,6.8-1.108A11.652,11.652,0,0,0,167.3,173.4c1.741-3.639,1.741-6.962,2.057-9.019,0-1.108.158-1.9.158-2.532V160.9a4.428,4.428,0,0,0,.158.949v2.532a23.5,23.5,0,0,1-1.741,9.336,11.7,11.7,0,0,1-4.272,5.063c-2.057,1.266-4.747,2.215-7.437,1.266a7.622,7.622,0,0,1-3.481-2.532,4.861,4.861,0,0,1-.633-4.43,5.481,5.481,0,0,1,3.165-3.323,11.35,11.35,0,0,1,4.589-.949,15.08,15.08,0,0,1,8.386,3.165,16.963,16.963,0,0,1,5.222,6.487,17.982,17.982,0,0,1,1.582,7.437,20.553,20.553,0,0,1-1.266,6.487,21.982,21.982,0,0,1-5.222,7.912,11.984,11.984,0,0,1-2.057,1.582A9.11,9.11,0,0,0,165.716,202.514Z" transform="translate(-151.815 -160.9)"/></g><g transform="translate(54.236 108.824)"><path class="bc" d="M184.051,217.3l-1.266-1.266a20.5,20.5,0,0,1-2.69-4.114,30.093,30.093,0,0,1-3.481-15.823,29.145,29.145,0,0,1,5.538-15.19,32.73,32.73,0,0,1,3.165-3.8A6.193,6.193,0,0,1,186.74,176c.158.158-1.9,1.741-4.114,5.222a30.524,30.524,0,0,0-5.063,14.874,29.757,29.757,0,0,0,3.165,15.507C182.468,215.241,184.209,217.14,184.051,217.3Z" transform="translate(-176.576 -176)"/></g><g transform="translate(58.387 92.407)"><path class="bd" d="M213.378,188.845c-.158,0-.791-2.373-2.69-5.855A34.208,34.208,0,0,0,200.245,171.6a34.673,34.673,0,0,0-14.557-5.222c-3.956-.475-6.487-.158-6.487-.316,0,0,.633-.158,1.741-.316a23.427,23.427,0,0,1,4.747,0,31.383,31.383,0,0,1,14.874,5.063,32.532,32.532,0,0,1,10.6,11.709,22.97,22.97,0,0,1,1.9,4.43C213.378,188.212,213.536,188.845,213.378,188.845Z" transform="translate(-179.2 -165.625)"/></g><g class="i" transform="translate(134.772 138.729)"><path class="be" d="M228.622,216.1c-1.582.633-1.424,3.006-.158,4.114s3.006,1.108,4.747.949A61.326,61.326,0,0,0,280.047,194.9c-14.241,11.709-33.07,16.139-51.108,20.253" transform="translate(-227.475 -194.9)"/></g><g class="i" transform="translate(132.315 93.317)"><path class="bf" d="M226.678,216.675c-1.582-2.373-.475-5.7,1.424-7.753,2.057-2.057,4.747-3.165,7.279-4.43a46.846,46.846,0,0,0,21.361-21.836c2.848-6.171,5.063-13.924,11.393-16.456-3.323,21.994-19.62,41.456-40.665,48.577" transform="translate(-225.922 -166.2)"/></g><g class="i" transform="translate(82.739 61.671)"><path class="bg" d="M199.985,146.2a162.725,162.725,0,0,1-3.639,51.741c-.791,3.639-1.9,7.279-1.741,10.918,0,3.639,2.373,7.912,5.222,10.285,2.69-6.013,2.69-11.867,3.8-18.355.949-5.855,2.69-19.621,2.69-19.779.158-12.025-2.532-22.31-7.279-33.07" transform="translate(-194.59 -146.2)"/></g><g class="i" transform="translate(116.932 9.297)"><path class="bh" d="M217.149,113.575a63.869,63.869,0,0,0,17.88,33.545c3.481,3.481,7.912,6.487,12.658,6.329a29.158,29.158,0,0,1-2.373-18.671,79.368,79.368,0,0,0,12.975,7.12c4.589,1.741,9.652,2.69,14.557,1.582.949-8.7,2.057-17.564,3.006-26.266a4.956,4.956,0,0,0-.316-3.006,1.734,1.734,0,0,0-2.532-.633,1.709,1.709,0,0,0-.475,1.108c-1.741,7.753-2.848,14.557-4.589,22.31-1.266,1.266-5.222.791-7.753-.158-2.215-.791-3.165-2.69-4.589-4.589s-1.266-1.582-3.481-2.532c-4.114-1.741-11.867-.316-13.608,3.323s-.475,8.544.791,12.025A55.007,55.007,0,0,1,216.2,113.1" transform="translate(-216.2 -113.1)"/></g><g class="i" transform="translate(200.952 46.956)"><path class="bi" d="M272.623,136.9c-.317.633,9.81,34.969,9.81,34.969L269.3,164.432Z" transform="translate(-269.3 -136.9)"/></g></g></g><g transform="translate(149.843)"><g transform="translate(6.186 6.29)"><path class="k" d="M219.6,84.428v54.589a12.971,12.971,0,0,0,3.165,8.544h0a37.407,37.407,0,0,0,10.918,9.019l11.076,6.171,9.177-8.07a13.108,13.108,0,0,0,4.43-9.336c.158-3.956.158-7.911.158-7.911s15.507-1.108,16.931-16.3c.633-7.12.949-21.836.949-35.444A29.657,29.657,0,0,0,249.189,56.1h-.475A28.276,28.276,0,0,0,219.6,84.428Z" transform="translate(-219.6 -56.092)"/><g transform="translate(19.462 73.748)"><path class="l" d="M251.2,110.137a36.2,36.2,0,0,1-19.3-7.437s3.956,11.551,19.3,11.393Z" transform="translate(-231.9 -102.7)"/></g></g><g transform="translate(26.41 28.93)"><g transform="translate(0.782 8.83)"><g transform="translate(23.102 1.424)"><g transform="translate(3.679 4.145)"><path class="o" d="M254.072,81.715a2.239,2.239,0,0,1-2.215,2.057,2.038,2.038,0,0,1-2.057-2.215,2.239,2.239,0,0,1,2.215-2.057A2.114,2.114,0,0,1,254.072,81.715Z" transform="translate(-249.8 -79.5)"/></g><path class="o" d="M256.059,79.6c-.316.316-1.9-1.108-4.114-1.266-2.373-.158-4.114.791-4.43.475-.158-.158.158-.633.949-1.108a5.7,5.7,0,0,1,3.481-.791,5.9,5.9,0,0,1,3.323,1.424C256.059,78.968,256.217,79.6,256.059,79.6Z" transform="translate(-247.475 -76.88)"/></g><g transform="translate(4.786 4.461)"><path class="o" d="M240.172,81.015a2.239,2.239,0,0,1-2.215,2.057,2.038,2.038,0,0,1-2.057-2.215,2.239,2.239,0,0,1,2.215-2.057A2.363,2.363,0,0,1,240.172,81.015Z" transform="translate(-235.9 -78.8)"/></g><path class="o" d="M241.459,78.7c-.316.316-1.9-1.108-4.114-1.266-2.373-.158-4.114.791-4.43.475-.158-.158.158-.633.949-1.108a5.7,5.7,0,0,1,3.481-.791,5.9,5.9,0,0,1,3.323,1.424C241.459,78.068,241.617,78.543,241.459,78.7Z" transform="translate(-232.875 -75.98)"/><g transform="translate(15.704 1.297)"><path class="o" d="M242.8,96.262c0-.158,1.424-.316,3.8-.316.633,0,1.108-.158,1.266-.475a2.437,2.437,0,0,0-.316-1.741q-.712-2.136-1.424-4.747c-1.9-6.646-3.323-12.184-3.006-12.184s2.057,5.222,3.956,12.025c.475,1.582.949,3.165,1.266,4.747a3.876,3.876,0,0,1,.158,2.373,1.19,1.19,0,0,1-1.108.791c-.316.158-.791,0-.949,0C244.224,96.579,242.8,96.421,242.8,96.262Z" transform="translate(-242.8 -76.8)"/></g><g transform="translate(8.268 21.867)"><path class="o" d="M238.575,89.8c.316,0,.158,2.532,2.215,4.589s4.747,1.9,4.747,2.215c0,.158-.633.475-1.741.316a5.823,5.823,0,0,1-3.956-1.741,5.493,5.493,0,0,1-1.741-3.8C238.1,90.275,238.417,89.8,238.575,89.8Z" transform="translate(-238.1 -89.8)"/></g></g><path class="o" d="M243.171,72.773c-.316.633-2.532.158-5.38.158s-5.063.633-5.38,0c-.158-.316.316-.791,1.266-1.424a11.763,11.763,0,0,1,4.114-1.108,9.479,9.479,0,0,1,4.114.791C242.854,71.982,243.329,72.457,243.171,72.773Z" transform="translate(-232.381 -70.4)"/><g transform="translate(24.2 3.44)"><path class="o" d="M255.626,75.305c-.475.475-2.057-.158-3.956-.316-1.9-.316-3.639,0-3.956-.475-.158-.316.158-.791.949-1.266a5.231,5.231,0,0,1,3.323-.633,6.631,6.631,0,0,1,3.006,1.266C255.626,74.514,255.943,74.989,255.626,75.305Z" transform="translate(-247.675 -72.574)"/></g></g><g transform="translate(3.879 9.067)"><path class="o" d="M238.329,68.058h0a12.492,12.492,0,0,0-5.222,7.437v.316c-.949,4.272-1.266,8.7-2.215,12.975s-.791,7.6-5.063,8.544a5.89,5.89,0,0,1-6.013-2.373A4.343,4.343,0,0,1,219.5,92.9c0-10.6-2.057-14.715-1.108-25.633a9.686,9.686,0,0,1,4.43-7.279c2.373-1.424,5.38-3.006,7.912-1.582s5.38,6.487,7.12,8.7" transform="translate(-218.142 -57.847)"/></g><g transform="translate(0 41.103)"><path class="k" d="M226.465,78.895c-.316-.158-10.285-3.956-10.76,6.487s10.127,8.861,10.127,8.544S226.465,78.895,226.465,78.895Z" transform="translate(-215.69 -78.094)"/><g transform="translate(2.705 3.491)"><path class="l" d="M221.83,88.528a1.959,1.959,0,0,1-.475.316,2.139,2.139,0,0,1-1.424,0c-1.108-.475-1.9-2.215-1.9-4.114a5.962,5.962,0,0,1,.633-2.532,1.83,1.83,0,0,1,1.424-1.266,1.071,1.071,0,0,1,1.108.475c.158.316,0,.475.158.475a.925.925,0,0,0,.158-.633,1.2,1.2,0,0,0-.316-.633,2.249,2.249,0,0,0-.949-.316c-.791,0-1.582.791-2.057,1.582a5.464,5.464,0,0,0-.791,2.848c0,2.057.949,4.114,2.373,4.589a2.812,2.812,0,0,0,1.741-.158C221.83,88.686,221.83,88.528,221.83,88.528Z" transform="translate(-217.4 -80.3)"/></g></g><g transform="translate(15.236)"><path class="o" d="M225.922,63.325c-2.215-4.43,5.38-9.81,10.6-10.918,5.222-1.266,11.867,1.9,16.772,3.956,3.165,1.266,6.171,3.165,9.652,3.165,2.215.158,4.589-.633,6.8-1.108a16.759,16.759,0,0,1,6.8-.791,6.472,6.472,0,0,1,5.222,3.956c.633,2.215-.791,4.905-3.006,5.063,3.006-1.424,6.962,1.108,7.279,4.43A5.414,5.414,0,0,1,279.4,76.3c1.582-.949,3.639,1.108,3.323,2.848-.316,1.9-2.057,3.006-3.956,3.639-4.43,1.582-9.494.475-13.924-1.424s-8.386-4.589-12.658-6.646-11.551-5.538-16.139-4.272c-3.323.949-6.013,4.747-7.753,3.639a6.158,6.158,0,0,1-2.848-4.905,14.957,14.957,0,0,1,.475-5.855" transform="translate(-225.32 -52.117)"/></g><g transform="translate(17.873 3.06)"><path class="p" d="M278.908,65.521c-.158,0-.633.791-1.9,1.9a14.726,14.726,0,0,1-6.171,3.323,12.712,12.712,0,0,1-9.969-1.266c-3.481-1.9-6.171-5.38-9.494-8.544a21.816,21.816,0,0,0-11.234-6.646,11.834,11.834,0,0,0-10.285,2.69,8.285,8.285,0,0,0-2.848,6.487,5.166,5.166,0,0,0,.316,1.9,1.732,1.732,0,0,0,.316.633,17.025,17.025,0,0,1-.158-2.532,9.04,9.04,0,0,1,3.006-6.013,11.493,11.493,0,0,1,9.652-2.215,22.359,22.359,0,0,1,10.76,6.329c3.165,3.165,6.013,6.8,9.652,8.7a14.152,14.152,0,0,0,10.6,1.108,12.459,12.459,0,0,0,6.171-3.639,9.127,9.127,0,0,0,1.266-1.582C278.908,65.68,278.908,65.521,278.908,65.521Z" transform="translate(-226.986 -54.05)"/></g><g transform="translate(6.028 14.358)"><path class="p" d="M221.557,88.1A3.633,3.633,0,0,0,222.506,87a6.179,6.179,0,0,0,.791-3.8c0-3.323-2.69-7.279-2.69-11.867a9.809,9.809,0,0,1,1.741-6.171,8.182,8.182,0,0,1,4.114-3.006A6.689,6.689,0,0,1,229.943,62c.791.158,1.266.475,1.266.316a2.479,2.479,0,0,0-1.266-.791,7.2,7.2,0,0,0-3.8-.158,8.194,8.194,0,0,0-4.747,3.165,11.7,11.7,0,0,0-1.9,6.646,22.578,22.578,0,0,0,1.424,6.8,18.535,18.535,0,0,1,1.424,5.222C222.981,86.364,221.4,87.946,221.557,88.1Z" transform="translate(-219.5 -61.191)"/></g></g></g><g transform="translate(109.062 228.507)"><g transform="translate(0 55.697)"><g transform="translate(34.222 131.806)"><path class="bj" d="M332.116,268.9h-2.373c-1.582,0-3.956,0-6.962.158-6.013.158-15.032.316-26.583.949s-25.633,1.582-41.931,3.481c-8.07.949-16.772,2.057-25.95,3.639-9.177,1.424-18.829,3.323-28.8,5.538a318.021,318.021,0,0,0-31.171,8.544A213.861,213.861,0,0,0,136.069,304.5a95.535,95.535,0,0,0-15.507,9.969A48.469,48.469,0,0,0,107.9,328.394c-.316.633-.791,1.424-1.108,2.057l-.949,2.215-.475,1.108c-.158.316-.158.791-.316,1.108l-.633,2.373a24.858,24.858,0,0,0,.475,9.652c1.582,6.487,5.854,11.867,10.6,16.614,9.968,9.336,22.627,15.823,35.6,21.2a289.987,289.987,0,0,0,41.615,13.133c28.8,6.962,59.336,11.076,90.666,13.291a711.411,711.411,0,0,0,91.773.316,568.833,568.833,0,0,0,84.811-11.076c13.291-2.848,26.108-6.329,38.45-10.285a192.542,192.542,0,0,0,34.336-15.032,96.242,96.242,0,0,0,14.557-10.285A42.284,42.284,0,0,0,557.752,351.5l.791-1.9a8.919,8.919,0,0,0,.633-1.9l.475-2.057c0-.316.158-.633.158-.949l.158-.949a19.012,19.012,0,0,0-.633-7.912,31.608,31.608,0,0,0-8.228-13.133,79.9,79.9,0,0,0-11.551-9.494,125.61,125.61,0,0,0-12.342-7.279,191.453,191.453,0,0,0-23.893-10.6,351.308,351.308,0,0,0-40.19-12.342c-11.234-2.848-19.937-4.589-25.95-5.7-3.006-.633-5.222-.949-6.8-1.266L428,275.546s3.165.475,9.177,1.582,14.715,2.848,25.95,5.538a346.953,346.953,0,0,1,40.19,12.184,219.74,219.74,0,0,1,24.051,10.6c4.114,2.215,8.228,4.589,12.342,7.279a66.562,66.562,0,0,1,11.709,9.652,36.541,36.541,0,0,1,4.905,6.171,28.112,28.112,0,0,1,3.481,7.279,20.541,20.541,0,0,1,.633,8.228l-.158,1.108c0,.316-.158.633-.158.949l-.475,2.057c-.158.633-.475,1.266-.633,2.057l-.791,1.9a41.762,41.762,0,0,1-10.6,13.608,97.109,97.109,0,0,1-14.557,10.443,194.132,194.132,0,0,1-34.494,15.032,360.091,360.091,0,0,1-38.45,10.443,568.817,568.817,0,0,1-84.811,11.076,743.649,743.649,0,0,1-91.932-.316c-31.33-2.215-62.026-6.329-90.824-13.45a290,290,0,0,1-41.614-13.133c-13.133-5.538-25.792-12.026-35.918-21.361-4.905-4.747-9.177-10.285-10.76-16.931a26.493,26.493,0,0,1-.475-9.969l.633-2.373c.158-.475.158-.791.316-1.266l.475-1.108.949-2.215a15.812,15.812,0,0,1,1.266-2.215A48.1,48.1,0,0,1,120.4,314.312a109.041,109.041,0,0,1,15.665-9.968,206.13,206.13,0,0,1,32.437-13.291c10.76-3.481,21.2-6.171,31.33-8.544,10.127-2.215,19.779-4.114,28.956-5.538,9.177-1.582,17.88-2.532,25.95-3.481,16.3-1.741,30.38-2.848,41.931-3.323s20.412-.633,26.583-.791h6.962A5.325,5.325,0,0,1,332.116,268.9Z" transform="translate(-103.545 -268.9)"/></g><path class="d" d="M215.436,197.467s-.949.158-2.69.475-4.43.791-7.753,1.582c-6.8,1.424-16.931,3.639-29.747,7.12a324,324,0,0,0-45.728,16.139,146.43,146.43,0,0,0-13.133,6.646,130.943,130.943,0,0,0-13.133,8.386,72.793,72.793,0,0,0-12.184,11.076,37.752,37.752,0,0,0-8.228,15.032,27.4,27.4,0,0,0,1.266,17.722,47.049,47.049,0,0,0,10.918,15.348c9.336,9.019,21.2,15.823,33.861,21.678,25.475,11.551,54.589,19.3,85.444,25.159a707.614,707.614,0,0,0,98.1,10.76,821.163,821.163,0,0,0,105.856-1.9c36.235-3.006,71.362-8.386,104.59-17.089A324.3,324.3,0,0,0,570.5,319.3a156.16,156.16,0,0,0,21.519-11.551,85.131,85.131,0,0,0,18.2-15.348c5.063-5.854,8.7-13.133,9.019-20.728a8.641,8.641,0,0,0-.158-2.848,17.433,17.433,0,0,0-.316-2.848l-.633-2.69a18.2,18.2,0,0,0-.949-2.69,44.308,44.308,0,0,0-5.38-9.652,79,79,0,0,0-15.981-14.874,154.291,154.291,0,0,0-18.355-10.76A253.4,253.4,0,0,0,539.808,210.6c-12.342-3.956-24.526-6.962-36.076-9.494-46.52-9.969-85.128-12.817-111.71-14.241-13.291-.633-23.576-.791-30.7-.949-3.481,0-6.171-.158-7.911-.158a18.171,18.171,0,0,1-2.69-.158h2.69c1.741,0,4.43,0,7.911.158,6.962.158,17.405.158,30.7.791,26.583,1.424,65.191,3.956,111.869,13.924,11.709,2.532,23.735,5.538,36.235,9.494a262,262,0,0,1,37.817,14.715,156.155,156.155,0,0,1,18.513,10.76,76.716,76.716,0,0,1,16.3,15.032,40.1,40.1,0,0,1,5.538,9.81,18.2,18.2,0,0,1,.949,2.69l.633,2.848a17.439,17.439,0,0,1,.316,2.848c0,.949.158,1.9.158,2.848a31.585,31.585,0,0,1-2.69,11.393,40.954,40.954,0,0,1-6.329,9.968c-5.063,6.013-11.551,11.076-18.355,15.507A166.437,166.437,0,0,1,571.3,319.937c-15.032,6.8-31.171,12.026-47.785,16.456-33.228,8.7-68.355,14.082-104.59,17.089a853.711,853.711,0,0,1-106.014,1.9c-34.178-1.582-67.248-5.063-98.1-10.918s-60.127-13.608-85.6-25.317c-12.658-5.855-24.684-12.658-34.019-21.836-4.747-4.589-8.7-9.652-11.076-15.507a28.428,28.428,0,0,1-1.266-18.038c1.424-5.854,4.747-10.918,8.386-15.19a73.854,73.854,0,0,1,12.184-11.234,107.749,107.749,0,0,1,13.133-8.386c4.43-2.532,8.861-4.589,13.133-6.646A302.4,302.4,0,0,1,175.4,206.328c12.817-3.481,22.943-5.538,29.905-6.962C211.8,198.1,215.436,197.467,215.436,197.467Z" transform="translate(-81.917 -185.6)"/><g transform="translate(76.24 245.503)"><path class="bk" d="M242.76,345.889c-.475.158-2.848.475-7.911,1.266-5.222.791-12.817,2.215-22.469,4.272a298.767,298.767,0,0,0-34.811,9.81,152.6,152.6,0,0,0-20.728,9.019,81.223,81.223,0,0,0-10.443,6.487,54.928,54.928,0,0,0-9.652,8.544,34.241,34.241,0,0,0-3.8,5.538,21.774,21.774,0,0,0-2.373,6.329c-.158.633-.158,1.108-.316,1.74l-.158,1.741a25.875,25.875,0,0,0,.316,3.481,28.454,28.454,0,0,0,.949,3.481L132,409.34l.316.791.475.791c2.215,4.272,5.7,7.911,9.494,11.234A72.282,72.282,0,0,0,155.1,430.7a174.634,174.634,0,0,0,29.905,12.5,299.892,299.892,0,0,0,33.228,8.544,504.639,504.639,0,0,0,73.26,8.7,578.218,578.218,0,0,0,79.115-1.424c27.057-2.373,53.324-6.487,78.007-13.45a183.4,183.4,0,0,0,35.127-13.45,97.171,97.171,0,0,0,15.348-9.81c1.266-.949,2.215-2.057,3.323-3.006a30,30,0,0,0,3.006-3.323,28.107,28.107,0,0,0,4.43-7.6c2.373-5.38,1.741-11.551-.633-16.614-2.532-5.063-6.646-9.177-10.918-12.658-8.7-6.962-18.671-11.551-28.323-15.507a241.681,241.681,0,0,0-28.8-9.177c-9.336-2.373-18.513-4.272-27.216-5.855a520.425,520.425,0,0,0-83.862-7.6c-19.779-.158-29.747-.158-30.855-.158,0,0,11.076-.158,30.855,0a520.45,520.45,0,0,1,83.862,7.6c8.7,1.582,17.88,3.481,27.374,5.855a241.7,241.7,0,0,1,28.8,9.177c9.652,3.956,19.62,8.544,28.481,15.507,4.272,3.481,8.386,7.6,11.076,12.817a20.771,20.771,0,0,1,.791,17.089,25,25,0,0,1-4.589,7.6c-.949,1.108-1.9,2.215-3.006,3.323-1.108.949-2.215,2.057-3.323,3.006a91.208,91.208,0,0,1-15.348,9.969c-10.918,5.7-22.943,9.81-35.127,13.45-24.684,6.962-50.95,11.076-78.007,13.45a607.019,607.019,0,0,1-79.273,1.424,483.261,483.261,0,0,1-73.26-8.861,299.892,299.892,0,0,1-33.228-8.544,174.638,174.638,0,0,1-29.905-12.5,82.086,82.086,0,0,1-12.817-8.544,41.568,41.568,0,0,1-9.652-11.393l-.475-.791-.316-.791-.633-1.741a20.251,20.251,0,0,1-1.266-7.12l.158-1.741a6.731,6.731,0,0,1,.316-1.741,22.754,22.754,0,0,1,2.373-6.487,34.244,34.244,0,0,1,3.8-5.538,63.378,63.378,0,0,1,9.81-8.7,82.833,82.833,0,0,1,10.6-6.487,152.607,152.607,0,0,1,20.728-9.019,291.894,291.894,0,0,1,34.969-9.81c9.652-2.057,17.405-3.323,22.469-4.114C240.07,346.206,242.76,345.889,242.76,345.889Z" transform="translate(-130.1 -340.756)"/></g><g transform="translate(130.038 352.974)"><path class="bl" d="M429.61,451.119a18.5,18.5,0,0,0-1.266-5.7c-1.424-3.639-5.38-8.07-11.551-12.184-12.5-8.228-33.228-15.032-59.336-19.3a376.594,376.594,0,0,0-43.2-4.272,410.03,410.03,0,0,0-49.842.949c-8.7.633-17.722,1.741-26.741,3.165a251.561,251.561,0,0,0-27.532,5.855q-6.883,1.9-13.766,4.272a144,144,0,0,0-13.45,5.855,64.137,64.137,0,0,0-12.184,8.386c-3.639,3.323-6.487,7.912-6.646,12.975,0,5.063,3.006,9.652,6.646,12.975a49.179,49.179,0,0,0,12.184,8.386,144.011,144.011,0,0,0,13.45,5.855,114.668,114.668,0,0,0,13.766,4.272c9.177,2.532,18.355,4.272,27.532,5.855,9.019,1.424,18.038,2.373,26.741,3.165a410.03,410.03,0,0,0,49.842.949,344.144,344.144,0,0,0,43.2-4.272c26.108-4.272,46.994-11.076,59.336-19.3,6.171-4.114,10.127-8.544,11.551-12.184a20.468,20.468,0,0,0,1.266-5.7,8.119,8.119,0,0,1-.158,1.582,11.685,11.685,0,0,1-.316,1.9,13.923,13.923,0,0,1-.791,2.373c-1.424,3.639-5.38,8.228-11.551,12.342-12.5,8.228-33.228,15.19-59.336,19.3a344.151,344.151,0,0,1-43.2,4.272,410.029,410.029,0,0,1-49.842-.949c-8.7-.633-17.722-1.741-26.741-3.165a251.563,251.563,0,0,1-27.532-5.855c-4.589-1.266-9.177-2.69-13.766-4.43a144.007,144.007,0,0,1-13.45-5.855,54.492,54.492,0,0,1-12.184-8.544,23.466,23.466,0,0,1-4.589-5.855,13.906,13.906,0,0,1,0-14.557,24.1,24.1,0,0,1,4.747-5.855,58.345,58.345,0,0,1,12.184-8.544,91.09,91.09,0,0,1,13.45-5.855c4.589-1.741,9.177-3.165,13.766-4.43,9.177-2.532,18.513-4.272,27.532-5.855,9.019-1.424,18.038-2.373,26.741-3.165a410.03,410.03,0,0,1,49.842-.949,344.127,344.127,0,0,1,43.2,4.272c26.108,4.272,46.994,11.076,59.336,19.3,6.171,4.114,10.127,8.7,11.551,12.342.316.949.633,1.741.791,2.373a9.47,9.47,0,0,1,.316,1.9Z" transform="translate(-164.1 -408.676)"/></g><g transform="translate(35.891 144.939)"><circle class="bm" cx="5.063" cy="5.063" r="5.063"/></g><g transform="translate(492.701 148.262)"><circle class="bn" cx="5.063" cy="5.063" r="5.063"/></g><g transform="translate(286.685 334.498)"><circle class="bo" cx="5.063" cy="5.063" r="5.063"/></g><g transform="translate(138.424 207.123)"><circle class="bp" cx="2.532" cy="2.532" r="2.532"/></g><g transform="translate(452.51 268.358)"><circle class="bq" cx="2.532" cy="2.532" r="2.532"/></g><g transform="translate(252.982 385.132)"><circle class="br" cx="2.532" cy="2.532" r="2.532"/></g></g><g transform="translate(124.974)"><circle class="d" cx="1.266" cy="1.266" r="1.266"/></g></g><g transform="translate(91.155 205.564)"><g transform="translate(179.275 97.786)"><path class="d" d="M376.466,318.43c-61.393,16.3-120.413,15.032-184.971,0l-7.6-117.881c66.615,12.975,133.388,11.393,192.408-2.848V318.43Z" transform="translate(-183.9 -197.7)"/><g class="e"><path class="f" d="M376.466,318.43c-61.393,16.3-120.413,15.032-184.971,0l-7.6-117.881c66.615,12.975,133.388,11.393,192.408-2.848V318.43Z" transform="translate(-183.9 -197.7)"/></g><g transform="translate(19.779 102.691)"><path class="d" d="M359.693,262.6a.49.49,0,0,0-.316.158,7.708,7.708,0,0,1-1.108.475,37,37,0,0,1-4.43,1.741c-3.956,1.424-9.652,3.481-16.931,5.38A225.9,225.9,0,0,1,278.68,277c-22.943-.316-43.513-3.481-58.387-6.171-7.437-1.424-13.291-2.69-17.405-3.639-2.057-.475-3.639-.791-4.747-1.108-.475-.158-.949-.158-1.266-.316a.693.693,0,0,1-.475-.158h.475c.316,0,.791.158,1.266.158,1.108.158,2.69.633,4.747.949,4.114.791,10.127,2.057,17.405,3.323a353.194,353.194,0,0,0,58.229,6.013,233.452,233.452,0,0,0,58.07-6.329c7.279-1.9,13.133-3.639,17.089-5.063,2.057-.633,3.481-1.266,4.589-1.582a10.9,10.9,0,0,0,1.266-.475C359.535,262.758,359.693,262.6,359.693,262.6Z" transform="translate(-196.4 -262.6)"/></g><g transform="translate(69.463 63.688)"><path class="bs" d="M251.376,281.859c-7.753,2.215-15.665,1.741-23.576-.791V239.137a59.14,59.14,0,0,1,23.576,0Z" transform="translate(-227.8 -237.95)"/></g><g transform="translate(105.381 41.219)"><path class="d" d="M276.292,287.6V286.33a30.73,30.73,0,0,0-.158-3.481c0-3.165-.158-7.437-.316-12.975-.158-11.076-.475-26.741-.633-44.779l.316.316a63.1,63.1,0,0,0-24.367,0l.316-.475v.791c.316,24.842.475,47.153.633,63.134l-.158-.316a51.9,51.9,0,0,0,10.285,1.266,51.045,51.045,0,0,0,7.753-.633c2.057-.475,3.639-.949,4.747-1.266a10.9,10.9,0,0,0,1.266-.475.2.2,0,1,1,0,.317,5.352,5.352,0,0,1-1.266.475c-1.108.317-2.69.949-4.747,1.424a35.926,35.926,0,0,1-7.911.791,52.2,52.2,0,0,1-10.443-1.108h-.158v-.158c-.158-15.981-.475-38.292-.949-63.134v-1.108h.316a64.718,64.718,0,0,1,24.684,0h.316v.316c.158,18.2.316,33.7.316,44.937V287.6C276.292,287.438,276.292,287.6,276.292,287.6Z" transform="translate(-250.5 -223.75)"/></g><g transform="translate(143.831 32.751)"><path class="bt" d="M298.376,285.807c-6.329,3.481-14.715,3.956-23.576,3.323v-69.3c8.07-1.741,15.981-2.057,23.576,0Z" transform="translate(-274.8 -218.398)"/></g><g transform="translate(32.279 76.112)"><path class="d" d="M227.56,273.806a13.7,13.7,0,0,0-.158-1.741c0-1.266,0-2.848-.158-4.905,0-4.272-.158-10.127-.158-16.931l.158.316c-6.329-2.373-14.241-4.589-22.785-3.8h0l.316-.475V269.85l-.158-.316a36.442,36.442,0,0,0,9.177,2.532c2.848.475,5.222.791,7.279.949q2.848.237,4.747.475a7.072,7.072,0,0,0,1.741.316h-1.741c-1.108,0-2.69,0-4.747-.158a72.29,72.29,0,0,1-7.279-.791,39.406,39.406,0,0,1-9.336-2.532l-.158-.158V245.957h.316c8.7-.791,16.772,1.582,23.1,3.956l.158.158v.316c0,7.12-.158,12.975-.158,17.247a40.164,40.164,0,0,1-.158,4.747Q227.56,273.806,227.56,273.806Z" transform="translate(-204.3 -245.802)"/></g><g transform="translate(27.69 31.512)"><g transform="translate(7.437 9.408)"><path class="d" d="M237.588,225.522c0,.158-1.741.316-4.589.316s-6.8,0-11.234-.316-8.228-.633-11.076-1.108a33.133,33.133,0,0,1-4.589-.791c0-.158,1.741,0,4.589.316,2.848.158,6.8.475,11.076.791s8.228.475,11.076.475C235.847,225.363,237.588,225.363,237.588,225.522Z" transform="translate(-206.1 -223.561)"/></g><g transform="translate(7.753 14.256)"><path class="d" d="M233.99,228.8c0,.158-1.582.158-4.114,0s-6.013-.316-9.81-.633-7.279-.633-9.81-.791c-2.532-.316-3.956-.475-3.956-.633s1.582-.158,4.114,0,6.013.316,9.81.633,7.279.633,9.81.791C232.408,228.484,233.99,228.8,233.99,228.8Z" transform="translate(-206.3 -226.625)"/></g><path class="d" d="M245.388,240.851v-1.424c0-.949.158-2.373.158-4.114.158-3.639.475-8.544.633-14.715l.316.316a329.511,329.511,0,0,1-43.671-2.373c-.475.316.633-.475.475-.316h0v2.532c0,.949-.158,1.741-.158,2.69-.158,1.741-.158,3.481-.316,5.222-.158,3.323-.475,6.646-.633,9.81l-.316-.475c12.658,1.582,23.576,2.215,31.33,2.532,3.8.158,6.8.158,9.019.316h-9.177c-7.753-.158-18.671-.791-31.33-2.215H201.4v-.316c.158-3.165.316-6.487.633-9.81.158-1.741.158-3.481.316-5.222,0-.949.158-1.741.158-2.69v-2.532h0c-.158.158.949-.791.475-.316a367.546,367.546,0,0,0,43.671,2.69h.316v.316c-.475,6.171-.791,11.393-.949,14.874-.158,1.741-.158,3.006-.316,3.956A11.621,11.621,0,0,1,245.388,240.851Z" transform="translate(-201.4 -217.615)"/></g><g transform="translate(71.661 54.738)"><path class="d" d="M234.586,241.164c-.158.158-1.582-1.741-3.006-4.272a16.17,16.17,0,0,1-2.373-4.589c.158-.158,1.582,1.741,3.006,4.272C233.8,238.949,234.9,241.164,234.586,241.164Z" transform="translate(-229.189 -232.294)"/></g></g><g transform="translate(0 8.07)"><path class="d" d="M70.6,141,90.7,262.362s30.538,57.279,111.869,70.254L189.431,224.387C189.589,224.229,114.271,200.969,70.6,141Z" transform="translate(-70.6 -141)"/><g class="e"><path class="f" d="M70.6,141,90.7,262.362s30.538,57.279,111.869,70.254L189.431,224.387C189.589,224.229,114.271,200.969,70.6,141Z" transform="translate(-70.6 -141)"/></g><g transform="translate(10.601 32.595)"><path class="d" d="M188.219,311.919a1.224,1.224,0,0,1-.475-.158,14.938,14.938,0,0,0-1.424-.475c-1.424-.475-3.323-.949-5.7-1.741-2.532-.791-5.538-1.582-9.019-3.006-1.741-.633-3.639-1.424-5.538-2.057-1.9-.791-4.114-1.582-6.171-2.532-4.272-1.9-8.861-3.956-13.766-6.646-4.905-2.532-9.81-5.538-15.032-8.861a148.6,148.6,0,0,1-30.222-26.266,99.361,99.361,0,0,1-10.918-15.19h0c-3.639-23.576-6.8-44.463-9.177-59.336-1.108-7.437-2.057-13.291-2.69-17.564-.316-2.057-.475-3.639-.633-4.747,0-.475-.158-.949-.158-1.266V161.6a1.225,1.225,0,0,0,.158.475c0,.316.158.633.158,1.266.158,1.108.475,2.69.791,4.747.633,4.114,1.582,10.127,2.848,17.405,2.373,14.874,5.7,35.6,9.494,59.336v-.158a87.472,87.472,0,0,0,10.76,15.032,151.926,151.926,0,0,0,30.064,26.108,154.4,154.4,0,0,0,15.032,8.861c4.747,2.69,9.494,4.747,13.608,6.646a50.7,50.7,0,0,0,6.171,2.532c1.9.791,3.8,1.424,5.538,2.215,3.481,1.424,6.487,2.373,8.861,3.165l5.7,1.9a7.358,7.358,0,0,1,1.424.475Z" transform="translate(-77.3 -161.6)"/></g><g transform="translate(17.405 59.653)"><path class="d" d="M178.6,266.676l-.316.316a3.452,3.452,0,0,1-.791.633c-.791.633-1.9,1.582-3.323,2.69-3.006,2.373-7.279,5.7-12.817,9.81l-.158.158-.158-.158c-4.272-6.013-9.652-13.291-15.665-21.677l.475.158c-3.8,2.69-7.753,5.538-12.025,8.544l-.475.316-.158-.475c-4.747-12.658-9.968-26.9-15.507-41.931-.791-2.057-1.424-4.114-2.215-6.013h.791c-3.323,6.646-6.646,13.133-9.81,19.3l-.475.791-.316-.949c-8.544-24.526-15.665-45.254-20.412-58.7h.475c-1.266,5.38-2.215,9.652-3.006,12.658-.316,1.424-.633,2.532-.791,3.323a1.72,1.72,0,0,0-.158.791.552.552,0,0,1-.158.316v-.316a6.856,6.856,0,0,0,.158-.791,31.615,31.615,0,0,0,.633-3.323c.633-3.006,1.582-7.279,2.848-12.658l.158-.791.316.791c4.747,13.45,12.025,34.178,20.728,58.7h-.791c3.165-6.171,6.329-12.658,9.81-19.3l.475-.791.316.949c.791,2.057,1.424,3.956,2.215,6.013,5.538,15.032,10.76,29.273,15.348,41.931l-.633-.158c4.272-3.006,8.228-5.855,12.025-8.544l.316-.158.158.316c6.013,8.386,11.234,15.823,15.507,21.677h-.316c5.538-4.114,9.81-7.279,12.975-9.652,1.424-1.108,2.69-1.9,3.481-2.532a3.31,3.31,0,0,1,.949-.633A1.733,1.733,0,0,1,178.6,266.676Z" transform="translate(-81.6 -178.7)"/></g><g transform="translate(71.204 71.362)"><path class="d" d="M155.949,204.138s-.633-.158-1.741-.316c-1.108-.316-2.69-.791-4.589-1.424a148.188,148.188,0,0,1-14.557-5.7c-5.538-2.532-10.443-5.222-13.924-7.12-1.741-.949-3.165-1.9-4.114-2.532L115.6,186.1a5.715,5.715,0,0,1,1.582.791c1.108.633,2.532,1.424,4.114,2.215,3.481,1.9,8.386,4.43,14.082,6.962,5.538,2.532,10.76,4.589,14.4,5.854,1.741.633,3.165,1.266,4.43,1.582A17.8,17.8,0,0,1,155.949,204.138Z" transform="translate(-115.6 -186.1)"/></g><g transform="translate(89.4 85.578)"><path class="d" d="M152.575,203.97c0,.158-1.582-.158-3.956-.633-2.373-.633-5.7-1.424-9.177-2.69s-6.646-2.69-8.861-3.639c-2.215-1.108-3.481-1.9-3.481-1.9,0-.158,1.424.475,3.639,1.424s5.38,2.215,8.861,3.481,6.8,2.215,9.019,3.006A33.121,33.121,0,0,1,152.575,203.97Z" transform="translate(-127.1 -195.085)"/></g><g transform="translate(80.064 137.66)"><ellipse class="d" cx="1.424" cy="1.741" rx="1.424" ry="1.741"/></g><g transform="translate(50.317 99.368)"><ellipse class="d" cx="1.424" cy="1.741" rx="1.424" ry="1.741"/></g><g transform="translate(20.253 59.336)"><ellipse class="d" cx="1.424" cy="1.741" rx="1.424" ry="1.741"/></g></g><g transform="translate(410.449)"><g transform="translate(0 29.589)"><path class="d" d="M450.255,154.6,440.128,277.861S410.856,330.552,330,332.609l9.968-124.052S410.539,205.708,450.255,154.6Z" transform="translate(-330 -154.6)"/></g><g transform="translate(76.425)"><path class="bu" d="M420.547,159.16c-2.69-8.544-9.019-20.728-24.209-23.26L378.3,301.725s33.7-6.8,34.652-25.159c0-1.582,6.8-84.02,8.544-104.432C421.972,167.546,421.972,163.432,420.547,159.16Z" transform="translate(-378.3 -135.9)"/></g><g class="e" transform="translate(0 29.589)"><path class="f" d="M450.255,154.6,440.128,277.861S410.856,330.552,330,332.609l9.968-124.052S410.539,205.708,450.255,154.6Z" transform="translate(-330 -154.6)"/></g><g transform="translate(20.886 61.077)"><path class="bv" d="M440.2,174.5a71.951,71.951,0,0,0-12.817,39.874c-.158,4.114.158,8.386-1.424,12.184s-5.538,6.962-9.494,5.854c-4.114-1.108-6.013-6.013-9.652-8.228-3.165-2.057-7.6-1.741-10.76.158-3.323,1.9-5.538,5.222-7.12,8.7-3.006,6.8-3.165,14.4-5.222,21.361-2.215,7.12-7.437,14.082-14.874,14.4-2.69.158-5.38-.633-8.07-.633-5.7.158-10.6,4.43-13.291,9.494s-3.481,10.76-4.272,16.456c0,0,43.039,4.114,91.457-53.007Z" transform="translate(-343.2 -174.5)"/></g><g transform="translate(45.887 133.23)"><ellipse class="d" cx="1.741" cy="2.69" rx="1.741" ry="2.69"/></g><g transform="translate(66.14 81.963)"><ellipse class="d" cx="1.741" cy="2.69" rx="1.741" ry="2.69"/></g><g transform="translate(22.627 67.09)"><path class="d" d="M438.447,178.3a.98.98,0,0,1-.316.633,18.693,18.693,0,0,1-.949,2.057c-.791,1.741-2.057,4.272-3.481,7.6-3.165,6.487-7.6,15.665-12.817,26.741l-.158.316-.316-.158c-9.019-5.7-19.3-12.184-30.538-19.3l.633-.158c-.475.949-.791,2.057-1.266,3.165-7.6,18.513-14.4,35.285-19.621,48.1l-.158.316-.316-.158c-7.6-4.272-13.766-7.753-18.038-9.968-2.215-1.108-3.8-2.057-5.063-2.69a9.332,9.332,0,0,0-1.266-.633A1.225,1.225,0,0,0,344.3,234c0-.158,2.532.949,6.962,3.165s10.6,5.538,18.2,9.81l-.475.158c5.222-12.817,12.026-29.747,19.462-48.26.475-1.108.791-2.057,1.266-3.165l.158-.475.475.316c11.076,7.12,21.519,13.608,30.38,19.3l-.475.158c5.38-10.918,9.969-20.1,13.133-26.583,1.582-3.165,2.848-5.7,3.8-7.437a10.4,10.4,0,0,0,.949-1.9A1.89,1.89,0,0,1,438.447,178.3Z" transform="translate(-344.3 -178.3)"/></g></g></g></g></svg>